<svg xmlns="http://www.w3.org/2000/svg" version="1.1" viewBox="0.00 0.00 184.00 184.00" width="184.00" height="184.00">
<g stroke-width="2.00" fill="none" stroke-linecap="butt">
<path stroke="#343431" d="&#10;  M 2.00 0.00&#10;  Q 0.63 0.58 0.00 1.86"/>
<path stroke="#5e1d1c" d="&#10;  M 92.74 0.00&#10;  Q 93.85 0.04 94.18 0.45&#10;  Q 94.54 0.88 94.04 1.13&#10;  Q 91.65 2.32 90.94 5.10&#10;  A 1.34 1.34 0.0 0 0 92.15 6.77&#10;  Q 92.70 6.81 95.74 6.99&#10;  Q 97.22 7.07 97.24 8.24&#10;  A 0.67 0.66 84.4 0 1 96.70 8.91&#10;  C 95.38 9.16 94.13 10.61 92.86 10.60&#10;  Q 91.65 10.59 91.49 10.56&#10;  Q 88.85 10.11 86.18 11.90&#10;  A 1.89 1.88 -25.2 0 0 85.43 13.98&#10;  C 86.24 16.78 90.91 15.12 93.00 14.79"/>
<path stroke="#4c1c17" d="&#10;  M 93.00 14.79&#10;  L 95.46 14.58&#10;  Q 95.93 14.54 95.90 15.01&#10;  L 95.84 15.96&#10;  Q 95.80 16.48 95.28 16.57&#10;  L 92.72 16.99"/>
<path stroke="#7b7461" d="&#10;  M 92.72 16.99&#10;  L 68.73 20.65"/>
<path stroke="#5e1d1c" d="&#10;  M 68.73 20.65&#10;  Q 64.47 17.07 72.48 18.33&#10;  Q 73.54 18.49 73.75 17.47&#10;  A 1.47 1.47 0.0 0 0 73.18 15.99&#10;  C 71.01 14.39 68.41 12.23 65.47 12.22&#10;  Q 62.73 12.21 62.08 14.76&#10;  Q 61.94 15.29 61.42 15.43&#10;  Q 58.42 16.20 57.33 16.29&#10;  Q 54.78 16.49 56.90 14.90&#10;  L 59.42 13.01&#10;  A 1.53 1.51 -49.7 0 0 59.23 10.44&#10;  Q 55.82 8.70 53.12 8.80&#10;  Q 51.72 8.85 52.66 9.88&#10;  Q 53.42 10.72 54.75 11.28&#10;  Q 55.18 11.47 55.61 11.26&#10;  Q 56.22 10.97 56.99 11.21&#10;  Q 57.55 11.38 57.27 11.90&#10;  Q 56.91 12.57 56.63 12.76&#10;  Q 56.20 13.05 55.79 12.73&#10;  Q 54.04 11.37 51.01 11.54&#10;  A 0.64 0.62 -89.4 0 0 50.42 12.13&#10;  L 50.40 12.44&#10;  A 0.63 0.62 -86.3 0 0 50.98 13.11&#10;  L 54.75 13.35&#10;  Q 55.42 13.39 54.92 13.85&#10;  Q 54.07 14.62 51.47 16.73&#10;  Q 50.47 17.54 49.36 17.78&#10;  Q 47.64 18.13 46.92 17.82&#10;  Q 41.79 15.58 38.37 19.74&#10;  A 0.53 0.53 0.0 0 0 38.70 20.60&#10;  L 41.41 20.98&#10;  Q 42.00 21.06 42.21 21.60&#10;  Q 42.61 22.62 41.86 23.21&#10;  Q 41.41 23.57 40.53 23.64&#10;  Q 39.37 23.72 39.10 23.50&#10;  Q 36.54 21.39 38.11 24.44&#10;  Q 39.35 26.86 43.43 27.49&#10;  Q 43.73 27.53 43.91 27.78&#10;  Q 44.16 28.14 44.75 27.89&#10;  Q 45.24 27.69 45.77 27.80&#10;  Q 47.26 28.11 47.32 29.93"/>
<path stroke="#8d8d8c" d="&#10;  M 47.32 29.93&#10;  L 38.76 37.42"/>
<path stroke="#4c1c17" d="&#10;  M 38.76 37.42&#10;  Q 37.06 37.27 35.55 36.22&#10;  Q 34.75 35.66 34.04 36.05&#10;  Q 33.54 36.32 33.92 36.74&#10;  Q 34.74 37.62 34.79 38.40&#10;  Q 34.82 38.92 34.49 39.32&#10;  Q 32.94 41.17 29.88 41.77&#10;  A 1.86 1.86 0.0 0 0 28.52 44.32&#10;  Q 29.35 46.25 30.46 47.02&#10;  A 1.67 1.67 0.0 0 1 31.17 48.64&#10;  C 30.35 54.00 30.02 57.60 26.88 62.51&#10;  Q 25.17 65.18 24.01 67.70&#10;  Q 21.57 73.01 20.78 73.78&#10;  Q 17.34 77.08 14.49 79.78&#10;  Q 14.16 80.09 13.70 80.06&#10;  L 11.47 79.91&#10;  A 1.14 1.11 28.8 0 0 10.78 80.10&#10;  Q 9.08 81.27 8.91 82.72&#10;  Q 8.64 85.04 8.55 89.83&#10;  Q 8.50 92.62 10.10 90.34&#10;  C 11.08 88.94 11.76 87.45 13.25 86.14&#10;  Q 16.78 83.05 19.27 79.61&#10;  Q 21.43 76.63 20.97 80.25&#10;  Q 20.95 80.34 19.89 82.02"/>
<path stroke="#5a2417" d="&#10;  M 19.89 82.02&#10;  L 15.41 87.49&#10;  Q 15.09 87.88 14.97 88.36&#10;  L 11.99 101.00"/>
<path stroke="#4c1c17" d="&#10;  M 11.99 101.00&#10;  Q 11.89 101.12 11.71 101.24"/>
<path stroke="#2f231f" d="&#10;  M 11.71 101.24&#10;  Q 10.49 108.36 8.49 112.47&#10;  C 5.84 117.92 3.67 121.93 5.00 126.96&#10;  Q 5.21 127.75 5.74 127.13&#10;  L 8.96 123.36&#10;  Q 9.19 123.09 9.56 123.14&#10;  L 14.20 123.78&#10;  A 1.48 1.47 11.4 0 0 15.84 122.69&#10;  L 17.51 116.22"/>
<path stroke="#4c1c17" d="&#10;  M 17.51 116.22&#10;  L 21.25 114.13&#10;  A 1.25 1.25 0.0 0 1 23.05 114.84&#10;  L 24.01 117.73&#10;  A 1.47 1.46 82.0 0 0 25.32 118.73&#10;  Q 29.34 118.95 28.27 114.77"/>
<path stroke="#381715" d="&#10;  M 28.27 114.77&#10;  L 28.71 114.10&#10;  Q 29.02 113.61 29.47 113.98&#10;  L 29.86 114.32&#10;  A 0.81 0.80 25.5 0 1 30.13 115.07&#10;  Q 29.27 120.17 26.35 125.61&#10;  A 0.65 0.57 27.3 0 0 26.67 126.43&#10;  L 26.94 126.57&#10;  A 0.91 0.91 0.0 0 0 28.14 126.22&#10;  L 30.50 122.12&#10;  Q 31.58 120.26 32.11 122.34&#10;  Q 32.59 124.22 32.11 127.10&#10;  Q 31.95 128.05 32.60 128.76&#10;  L 36.67 133.20&#10;  Q 36.95 133.50 36.89 133.91&#10;  L 36.08 139.71&#10;  Q 36.02 140.12 35.60 140.08&#10;  C 29.48 139.47 26.15 135.62 21.82 131.18&#10;  Q 21.56 130.91 21.08 130.97&#10;  L 14.14 131.80&#10;  A 1.26 0.49 -1.4 0 0 13.25 132.17&#10;  Q 12.85 132.78 13.06 133.43&#10;  A 0.98 0.98 0.0 0 0 13.76 134.08&#10;  Q 16.28 134.71 18.39 136.19&#10;  Q 20.03 137.35 18.87 138.87&#10;  L 18.55 139.29&#10;  Q 17.29 140.96 15.70 139.60&#10;  L 12.45 136.83&#10;  A 1.39 1.39 0.0 0 0 10.18 138.15&#10;  L 10.82 141.40&#10;  Q 10.90 141.82 10.77 142.17&#10;  C 10.27 143.61 10.04 144.87 11.09 146.17&#10;  Q 13.36 149.01 14.97 150.55&#10;  Q 16.81 152.31 18.33 154.69&#10;  C 20.78 158.51 24.75 161.94 25.27 167.06&#10;  C 25.62 170.51 27.98 173.64 29.60 177.33&#10;  A 0.80 0.80 0.0 0 1 29.47 178.17&#10;  Q 28.83 178.91 27.23 179.47&#10;  Q 26.76 179.64 26.49 180.06&#10;  Q 25.32 181.88 27.11 183.18&#10;  Q 27.62 183.54 27.05 183.80&#10;  L 26.61 184.00"/>
<path stroke="#343431" d="&#10;  M 1.80 184.00&#10;  Q 0.76 183.33 0.00 182.32"/>
<path stroke="#5e1d1c" d="&#10;  M 101.38 0.00&#10;  Q 98.91 0.48 96.44 0.12&#10;  A 0.87 0.87 0.0 0 0 95.45 0.98&#10;  Q 95.45 1.22 95.96 1.28&#10;  C 96.96 1.40 97.80 0.65 99.05 0.93&#10;  A 0.53 0.53 0.0 0 1 99.29 1.84&#10;  L 97.34 3.63&#10;  Q 96.25 4.62 97.72 4.59&#10;  Q 104.27 4.45 103.37 9.86&#10;  A 1.04 1.04 0.0 0 0 104.33 11.07&#10;  L 105.61 11.15&#10;  Q 106.17 11.19 106.13 11.74&#10;  L 106.00 14.25"/>
<path stroke="#8f1e18" d="&#10;  M 106.00 14.25&#10;  Q 102.69 14.65 97.30 14.16&#10;  Q 95.48 14.00 93.00 14.79"/>
<path stroke="#343431" d="&#10;  M 181.66 0.00&#10;  Q 183.43 0.46 184.00 2.34"/>
<path stroke="#343431" d="&#10;  M 184.00 182.12&#10;  L 182.32 184.00"/>
<path stroke="#28282a" d="&#10;  M 174.99 184.00&#10;  L 158.46 162.04&#10;  Q 158.15 161.63 158.65 161.55&#10;  Q 160.20 161.28 162.09 162.05"/>
<path stroke="#343431" d="&#10;  M 162.09 162.05&#10;  L 171.16 171.01&#10;  Q 171.79 171.63 171.66 170.75&#10;  Q 170.68 164.28 165.86 160.37&#10;  Q 163.91 158.78 161.67 157.11"/>
<path stroke="#28282a" d="&#10;  M 161.67 157.11&#10;  L 163.62 149.30"/>
<path stroke="#381715" d="&#10;  M 163.62 149.30&#10;  Q 166.63 158.16 173.26 164.86&#10;  Q 174.15 165.76 174.66 166.14&#10;  A 1.95 1.94 -76.5 0 0 177.74 164.25&#10;  Q 177.13 160.70 176.22 155.68&#10;  C 175.79 153.32 174.28 152.20 174.09 149.66&#10;  Q 173.78 145.75 171.26 142.53&#10;  Q 170.71 141.82 169.64 136.38&#10;  Q 169.54 135.85 169.81 135.37&#10;  L 171.12 133.10&#10;  Q 171.35 132.70 171.33 132.24&#10;  Q 171.25 130.63 171.88 129.43&#10;  A 1.14 1.14 0.0 0 1 173.95 129.52&#10;  L 174.59 131.06"/>
<path stroke="#4c1c17" d="&#10;  M 174.59 131.06&#10;  Q 174.49 132.29 174.88 133.46&#10;  A 1.26 1.25 3.4 0 0 175.56 134.22&#10;  C 176.49 134.64 176.83 134.83 177.18 135.99&#10;  Q 177.96 138.57 179.49 140.65&#10;  A 0.69 0.69 0.0 0 0 180.73 140.34&#10;  C 181.78 133.40 181.05 126.10 181.40 119.54&#10;  Q 181.62 115.50 179.85 112.22&#10;  Q 179.61 111.79 179.15 111.61&#10;  Q 178.26 111.27 178.37 109.78&#10;  Q 178.60 106.83 180.81 106.09&#10;  Q 181.27 105.94 181.17 105.47&#10;  Q 181.09 105.12 180.69 104.96&#10;  Q 180.41 104.84 180.57 104.58&#10;  L 180.77 104.22&#10;  Q 181.02 103.79 181.03 103.29&#10;  Q 181.07 100.30 181.40 93.76&#10;  Q 181.44 92.96 180.29 92.08&#10;  Q 179.86 91.75 179.55 92.19&#10;  Q 177.09 95.68 179.04 98.82&#10;  C 179.95 100.29 180.12 101.38 178.90 102.58&#10;  Q 178.57 102.92 178.18 102.65&#10;  L 176.47 101.48"/>
<path stroke="#28282a" d="&#10;  M 176.47 101.48&#10;  Q 175.97 98.50 175.27 97.75&#10;  Q 172.33 94.57 169.67 91.58&#10;  A 4.45 4.41 74.9 0 0 167.28 90.19&#10;  L 159.73 88.61"/>
<path stroke="#2f231f" d="&#10;  M 159.73 88.61&#10;  L 168.13 84.42&#10;  Q 168.32 84.33 168.35 84.12&#10;  L 168.39 83.83&#10;  A 0.45 0.45 0.0 0 0 167.78 83.34&#10;  Q 164.13 84.68 159.40 87.08&#10;  Q 157.72 87.93 156.88 86.82&#10;  Q 156.55 86.39 156.75 85.89&#10;  Q 157.26 84.63 157.11 83.46"/>
<path stroke="#5e1d1c" d="&#10;  M 157.11 83.46&#10;  Q 157.85 81.25 159.82 80.29"/>
<path stroke="#4c1c17" d="&#10;  M 159.82 80.29&#10;  L 169.66 74.67&#10;  Q 170.42 74.24 169.66 73.84&#10;  L 169.25 73.62&#10;  A 0.93 0.88 43.3 0 0 168.36 73.62&#10;  L 159.82 78.46"/>
<path stroke="#5e1d1c" d="&#10;  M 159.82 78.46&#10;  L 157.08 74.58&#10;  Q 156.78 74.16 156.96 73.67&#10;  Q 157.14 73.17 157.60 73.01&#10;  Q 159.18 72.47 157.93 71.41&#10;  Q 157.28 70.87 157.20 70.29&#10;  Q 157.13 69.77 157.56 69.48&#10;  Q 161.08 67.05 158.52 63.45&#10;  Q 158.19 62.99 158.67 63.06&#10;  L 159.42 63.17&#10;  Q 159.67 63.20 159.68 63.22&#10;  Q 161.07 66.49 164.43 67.15&#10;  Q 164.92 67.25 164.77 66.77&#10;  Q 164.37 65.49 164.51 64.85&#10;  C 165.12 61.89 166.22 59.18 168.74 57.31&#10;  Q 170.05 56.34 171.45 54.97&#10;  Q 171.70 54.72 171.43 54.50&#10;  L 170.74 53.91&#10;  A 0.76 0.73 -70.5 0 1 170.48 53.34&#10;  Q 170.44 51.49 168.47 48.38&#10;  Q 162.39 38.76 157.93 34.11&#10;  Q 157.13 33.28 157.37 32.48&#10;  Q 157.59 31.76 158.16 32.25&#10;  L 170.65 42.91&#10;  A 0.61 0.61 0.0 0 0 171.66 42.51&#10;  Q 171.87 40.51 170.93 38.49&#10;  Q 170.72 38.04 170.72 37.54&#10;  C 170.72 35.36 168.04 30.11 165.39 33.15&#10;  Q 165.02 33.58 164.57 33.24&#10;  Q 161.46 30.90 158.53 29.00&#10;  C 156.70 27.81 155.45 25.77 154.18 24.54&#10;  C 152.73 23.11 152.01 20.86 150.59 19.34&#10;  Q 150.23 18.96 149.72 18.83&#10;  L 145.94 17.85&#10;  A 0.45 0.44 -2.0 0 0 145.40 18.42&#10;  L 146.46 21.61&#10;  A 0.45 0.45 0.0 0 1 146.20 22.17&#10;  Q 145.52 22.45 144.91 22.39&#10;  A 0.80 0.79 -6.1 0 1 144.23 21.85&#10;  L 143.35 19.20&#10;  Q 143.18 18.70 142.78 19.03&#10;  C 141.20 20.32 141.64 24.18 142.14 26.01&#10;  Q 142.25 26.39 143.98 27.84&#10;  Q 144.38 28.17 144.40 28.69&#10;  Q 144.43 29.37 144.03 30.29&#10;  A 1.14 1.13 -43.0 0 0 144.00 31.10&#10;  Q 145.89 36.56 149.26 44.05&#10;  C 150.16 46.06 151.57 44.92 152.78 45.82&#10;  Q 153.37 46.25 153.27 47.12"/>
<path stroke="#28282a" d="&#10;  M 153.27 47.12&#10;  L 146.45 45.64"/>
<path stroke="#5e1d1c" d="&#10;  M 146.45 45.64&#10;  Q 147.12 45.32 146.88 44.87&#10;  Q 145.26 41.84 141.94 36.13&#10;  Q 140.51 33.68 139.23 30.44&#10;  Q 138.82 29.38 138.50 29.17&#10;  Q 136.33 27.71 137.19 30.02&#10;  Q 138.05 32.32 136.82 32.74"/>
<path stroke="#524e42" d="&#10;  M 136.82 32.74&#10;  Q 133.98 29.88 130.51 28.00&#10;  Q 121.61 23.19 112.87 17.69"/>
<path stroke="#4c1c17" d="&#10;  M 112.87 17.69&#10;  Q 113.91 14.64 106.00 14.25"/>
<path stroke="#bd7562" d="&#10;  M 68.73 20.65&#10;  L 57.41 24.26"/>
<path stroke="#d08e8d" d="&#10;  M 57.41 24.26&#10;  Q 51.66 25.19 47.32 29.93"/>
<path stroke="#5e1d1c" d="&#10;  M 51.39 23.43&#10;  A 0.35 0.35 0.0 0 0 51.63 23.38&#10;  Q 51.87 23.21 51.91 22.99&#10;  Q 51.98 22.53 51.56 22.35&#10;  L 43.55 18.93&#10;  A 0.68 0.48 73.5 0 0 43.19 20.01&#10;  L 44.85 22.10&#10;  A 1.75 1.43 -10.8 0 0 45.90 22.67&#10;  L 51.39 23.43"/>
<path stroke="#834f3e" d="&#10;  M 112.87 17.69&#10;  Q 108.87 16.46 104.15 17.32"/>
<path stroke="#ac755d" d="&#10;  M 104.15 17.32&#10;  L 92.72 16.99"/>
<path stroke="#b1a688" d="&#10;  M 104.15 17.32&#10;  Q 114.60 20.64 121.31 28.65&#10;  Q 124.55 32.52 126.56 34.49&#10;  Q 131.62 39.45 136.06 45.48"/>
<path stroke="#878170" d="&#10;  M 136.06 45.48&#10;  Q 119.93 45.39 113.02 46.08&#10;  Q 97.72 47.62 53.39 53.37"/>
<path stroke="#ede5d2" d="&#10;  M 53.39 53.37&#10;  Q 46.30 46.11 42.00 37.71&#10;  A 1.24 1.24 0.0 0 1 42.22 36.27&#10;  Q 45.35 33.08 48.75 30.55&#10;  C 52.32 27.90 54.48 26.23 58.21 25.22&#10;  A 0.78 0.78 0.0 0 0 58.71 24.12&#10;  Q 58.60 23.92 57.41 24.26"/>
<path stroke="#944f43" d="&#10;  M 136.82 32.74&#10;  L 145.64 45.21"/>
<path stroke="#5e5b51" d="&#10;  M 145.64 45.21&#10;  L 136.06 45.48"/>
<path stroke="#8f1e18" d="&#10;  M 159.82 78.46&#10;  L 159.82 80.29"/>
<path stroke="#722520" d="&#10;  M 157.11 83.46&#10;  L 152.80 84.63&#10;  A 0.68 0.68 0.0 0 1 151.95 84.07&#10;  L 151.57 81.63"/>
<path stroke="#944f43" d="&#10;  M 151.57 81.63&#10;  L 152.29 71.57"/>
<path stroke="#6a2a2b" d="&#10;  M 152.29 71.57&#10;  Q 154.73 72.94 154.64 69.48&#10;  Q 154.55 65.60 155.23 64.06&#10;  Q 155.42 63.61 155.31 63.14&#10;  Q 153.87 56.90 153.88 49.06&#10;  Q 153.88 48.59 153.66 48.06&#10;  Q 153.46 47.57 153.27 47.12"/>
<path stroke="#722520" d="&#10;  M 156.13 37.78&#10;  Q 156.30 38.02 156.49 37.80&#10;  L 156.77 37.47&#10;  Q 156.90 37.31 156.76 37.16&#10;  C 154.27 34.42 152.24 31.30 151.55 27.16&#10;  Q 151.20 25.03 149.95 22.17&#10;  Q 148.90 19.77 148.20 22.36&#10;  C 147.90 23.46 148.36 24.99 148.99 26.14&#10;  Q 152.38 32.34 156.13 37.78"/>
<path stroke="#5e1d1c" d="&#10;  M 158.89 51.92&#10;  A 1.46 1.45 -51.1 0 1 160.60 51.73&#10;  L 165.55 54.59&#10;  Q 166.12 54.92 166.45 54.35&#10;  L 166.64 54.01&#10;  A 0.53 0.52 -51.1 0 0 166.58 53.40&#10;  L 156.06 41.93&#10;  Q 154.38 40.09 154.70 42.56&#10;  C 155.00 44.81 154.93 46.21 155.79 47.73&#10;  Q 156.47 48.91 157.60 51.85&#10;  A 0.68 0.68 0.0 0 0 158.69 52.10&#10;  L 158.89 51.92"/>
<path stroke="#9a9a9b" d="&#10;  M 53.39 53.37&#10;  L 35.19 57.34"/>
<path stroke="#be8e88" d="&#10;  M 35.19 57.34&#10;  L 38.76 37.42"/>
<path stroke="#6a2a2b" d="&#10;  M 146.45 45.64&#10;  L 145.64 45.21"/>
<path stroke="#592926" d="&#10;  M 35.19 57.34&#10;  Q 33.82 57.97 32.53 57.91&#10;  A 1.25 1.24 -81.7 0 0 31.25 58.87&#10;  Q 30.27 63.10 31.03 67.06&#10;  C 31.94 71.81 31.62 75.94 32.87 80.63&#10;  C 33.08 81.44 32.89 81.70 32.94 82.30&#10;  Q 32.98 82.84 33.48 82.95&#10;  Q 35.20 83.33 36.97 82.73&#10;  A 1.85 1.82 41.0 0 1 37.93 82.67&#10;  Q 38.83 82.87 39.58 82.71"/>
<path stroke="#be8e88" d="&#10;  M 39.58 82.71&#10;  Q 39.80 84.96 40.30 86.85&#10;  C 40.75 88.52 41.96 89.64 42.38 91.47"/>
<path stroke="#be8e73" d="&#10;  M 42.38 91.47&#10;  Q 43.00 94.14 43.57 96.83&#10;  Q 44.15 99.61 43.86 102.22&#10;  Q 43.06 109.33 42.38 116.49&#10;  Q 42.33 117.00 42.80 117.19&#10;  Q 43.67 117.54 45.07 117.33"/>
<path stroke="#ac755d" d="&#10;  M 45.07 117.33&#10;  Q 45.86 117.90 45.59 119.08&#10;  Q 45.48 119.57 45.70 120.01&#10;  L 46.85 122.25"/>
<path stroke="#691811" d="&#10;  M 46.85 122.25&#10;  Q 43.45 123.14 40.42 121.93&#10;  C 37.42 120.73 35.61 117.89 33.79 116.24&#10;  C 31.41 114.07 29.64 111.17 27.17 109.32&#10;  Q 26.77 109.02 26.64 109.50&#10;  Q 26.57 109.78 26.82 110.04&#10;  Q 27.14 110.37 27.10 110.82&#10;  Q 26.95 113.02 28.27 114.77"/>
<path stroke="#60241b" d="&#10;  M 17.51 116.22&#10;  L 13.32 114.24&#10;  Q 12.82 114.00 12.73 113.49&#10;  L 12.05 109.77&#10;  Q 11.62 107.39 13.59 108.86&#10;  L 15.43 110.23&#10;  A 0.48 0.41 -57.4 0 0 16.07 110.03&#10;  Q 16.28 109.63 15.88 109.01&#10;  Q 13.47 105.26 11.71 101.24"/>
<path stroke="#8b2513" d="&#10;  M 11.99 101.00&#10;  Q 15.11 99.68 16.05 98.21&#10;  C 18.33 94.64 19.44 92.85 22.30 91.20&#10;  A 0.49 0.49 0.0 0 1 23.04 91.60&#10;  L 23.68 102.65&#10;  A 1.66 1.66 0.0 0 0 25.44 104.22&#10;  L 29.54 103.99&#10;  Q 30.90 103.91 30.90 102.55&#10;  Q 30.91 95.46 30.64 91.09&#10;  Q 30.27 85.23 25.87 82.01&#10;  A 0.85 0.84 -70.1 0 0 24.53 82.64&#10;  L 24.11 89.17&#10;  Q 24.08 89.56 23.69 89.53&#10;  L 23.28 89.51&#10;  Q 22.99 89.49 22.95 89.20&#10;  L 22.01 83.10&#10;  Q 21.93 82.57 21.45 82.34&#10;  Q 20.83 82.04 19.89 82.02"/>
<path stroke="#5e5b51" d="&#10;  M 152.29 71.57&#10;  L 141.79 72.70"/>
<path stroke="#878170" d="&#10;  M 141.79 72.70&#10;  L 128.97 74.04"/>
<path stroke="#957260" d="&#10;  M 128.97 74.04&#10;  L 108.30 75.89"/>
<path stroke="#878170" d="&#10;  M 108.30 75.89&#10;  L 87.90 78.07"/>
<path stroke="#957260" d="&#10;  M 87.90 78.07&#10;  L 51.94 81.56"/>
<path stroke="#9a9a9b" d="&#10;  M 51.94 81.56&#10;  L 39.58 82.71"/>
<path stroke="#665646" d="&#10;  M 151.57 81.63&#10;  Q 150.55 79.66 150.17 77.43&#10;  Q 150.06 76.76 149.70 76.52&#10;  Q 149.27 76.23 148.62 76.21"/>
<path stroke="#b1a688" d="&#10;  M 148.62 76.21&#10;  Q 145.68 73.24 141.79 72.70"/>
<path stroke="#8f7c65" d="&#10;  M 148.62 76.21&#10;  C 146.56 76.48 145.03 76.62 143.96 78.57&#10;  Q 142.56 81.12 141.94 84.23&#10;  Q 140.13 93.30 141.26 101.89"/>
<path stroke="#b1a688" d="&#10;  M 141.26 101.89&#10;  C 140.73 105.91 140.59 109.81 138.44 113.53&#10;  Q 138.14 114.04 137.54 114.08&#10;  L 133.16 114.33&#10;  A 0.62 0.62 0.0 0 0 132.63 115.19&#10;  Q 133.24 116.61 132.43 118.42&#10;  Q 129.75 124.46 128.11 128.97&#10;  C 127.02 131.98 124.77 134.99 123.17 138.08"/>
<path stroke="#878170" d="&#10;  M 123.17 138.08&#10;  Q 118.53 143.47 115.39 145.89&#10;  Q 113.44 147.39 101.98 154.50&#10;  C 100.27 155.56 97.20 156.64 94.82 157.07&#10;  Q 86.24 158.60 82.66 159.53&#10;  Q 79.85 160.26 77.38 159.73&#10;  Q 74.17 159.06 68.71 158.82&#10;  Q 68.19 158.79 67.88 158.37&#10;  L 59.05 146.09"/>
<path stroke="#bda98a" d="&#10;  M 59.05 146.09&#10;  L 63.22 144.85"/>
<path stroke="#e8bd97" d="&#10;  M 63.22 144.85&#10;  Q 66.25 146.58 69.28 147.12&#10;  C 72.56 147.70 77.19 148.68 80.90 147.97&#10;  Q 84.77 147.24 87.65 147.02&#10;  C 89.87 146.85 90.90 145.67 92.09 143.82&#10;  C 94.01 140.82 95.17 137.44 98.08 135.40&#10;  C 101.29 133.16 104.44 131.71 107.22 128.71&#10;  Q 111.43 124.17 115.29 119.81"/>
<path stroke="#ede5d2" d="&#10;  M 115.29 119.81&#10;  Q 119.19 119.05 121.71 115.98&#10;  Q 123.15 114.22 123.47 111.76&#10;  Q 123.67 110.26 122.56 111.28&#10;  Q 122.50 111.33 121.88 111.66"/>
<path stroke="#e8bd97" d="&#10;  M 121.88 111.66&#10;  Q 122.21 107.86 122.55 104.02&#10;  Q 122.89 100.21 123.78 96.45&#10;  Q 126.39 85.31 128.97 74.04"/>
<path stroke="#bda98a" d="&#10;  M 126.95 114.76&#10;  A 0.27 0.27 0.0 0 0 126.94 114.27&#10;  Q 125.96 113.88 125.22 114.08&#10;  A 0.46 0.46 0.0 0 0 125.14 114.93&#10;  Q 125.83 115.29 126.95 114.76"/>
<path stroke="#fbd6c2" d="&#10;  M 121.88 111.66&#10;  Q 119.53 116.14 115.29 119.81"/>
<path stroke="#cb9a7a" d="&#10;  M 63.22 144.85&#10;  Q 65.35 144.96 67.71 143.96"/>
<path stroke="#b68064" d="&#10;  M 67.71 143.96&#10;  Q 70.16 143.71 72.01 142.26&#10;  Q 72.42 141.94 72.93 142.08&#10;  C 73.70 142.30 74.00 142.45 74.96 142.36&#10;  Q 79.84 141.90 86.51 142.13&#10;  Q 86.91 142.15 87.15 141.84&#10;  Q 87.53 141.34 86.93 141.18&#10;  L 74.20 137.91&#10;  Q 73.50 137.73 73.85 137.10&#10;  Q 74.04 136.77 74.61 136.35&#10;  Q 77.35 134.38 81.08 131.85&#10;  Q 81.24 131.74 81.13 131.59&#10;  Q 81.06 131.48 80.93 131.43&#10;  Q 80.78 131.36 80.56 131.44&#10;  Q 71.79 134.46 68.72 135.52&#10;  Q 65.15 136.76 68.93 136.94&#10;  Q 69.01 136.94 70.90 137.16&#10;  A 0.66 0.66 0.0 0 1 71.37 138.19&#10;  Q 71.11 138.56 70.54 138.73"/>
<path stroke="#cb9a7a" d="&#10;  M 70.54 138.73&#10;  L 61.85 138.94"/>
<path stroke="#fad7ad" d="&#10;  M 61.85 138.94&#10;  Q 63.79 136.44 63.36 133.58&#10;  Q 62.80 129.78 62.80 129.60&#10;  Q 62.83 124.85 63.38 120.37&#10;  Q 64.64 110.06 65.92 99.29&#10;  A 2.05 2.04 20.5 0 0 65.03 97.35&#10;  L 55.83 91.16"/>
<path stroke="#fbd6c2" d="&#10;  M 55.83 91.16&#10;  L 51.94 81.56"/>
<path stroke="#e8bd97" d="&#10;  M 87.90 78.07&#10;  L 68.92 84.97&#10;  A 1.48 1.47 -19.1 0 0 68.01 86.82&#10;  L 70.75 95.08&#10;  A 0.55 0.55 0.0 0 0 71.44 95.43&#10;  L 109.86 82.70&#10;  A 0.77 0.77 0.0 0 0 110.38 81.92&#10;  Q 110.13 78.54 108.30 75.89"/>
<path stroke="#957260" d="&#10;  M 102.48 94.46&#10;  A 0.70 0.70 0.0 0 0 101.74 93.80&#10;  L 79.21 95.09&#10;  A 0.70 0.70 0.0 0 0 78.55 95.83&#10;  L 78.73 98.94&#10;  A 0.70 0.70 0.0 0 0 79.47 99.60&#10;  L 102.00 98.31&#10;  A 0.70 0.70 0.0 0 0 102.66 97.57&#10;  L 102.48 94.46"/>
<path stroke="#3c302e" d="&#10;  M 159.73 88.61&#10;  L 152.02 87.03&#10;  Q 151.49 86.92 151.35 87.46&#10;  L 150.99 88.96"/>
<path stroke="#5c3f32" d="&#10;  M 150.99 88.96&#10;  Q 151.40 87.15 150.80 86.60&#10;  Q 150.41 86.24 150.00 86.59&#10;  Q 142.20 93.32 146.41 103.05"/>
<path stroke="#8f7c65" d="&#10;  M 146.41 103.05&#10;  Q 145.01 106.08 141.65 109.33"/>
<path stroke="#665646" d="&#10;  M 141.65 109.33&#10;  Q 140.52 106.45 141.26 101.89"/>
<path stroke="#ffffe8" d="&#10;  M 55.83 91.16&#10;  L 55.62 95.86&#10;  A 0.54 0.54 0.0 0 1 54.83 96.31&#10;  C 50.79 94.24 47.17 92.17 42.38 91.47"/>
<path stroke="#63534d" d="&#10;  M 150.99 88.96&#10;  L 147.95 100.49"/>
<path stroke="#a88f74" d="&#10;  M 147.95 100.49&#10;  Q 146.84 101.56 146.41 103.05"/>
<path stroke="#592926" d="&#10;  M 176.47 101.48&#10;  L 169.35 127.49"/>
<path stroke="#442424" d="&#10;  M 169.35 127.49&#10;  L 163.62 149.30"/>
<path stroke="#414140" d="&#10;  M 161.67 157.11&#10;  Q 159.67 160.12 162.09 162.05"/>
<path stroke="#414140" d="&#10;  M 110.20 184.00&#10;  Q 110.10 182.06 110.77 179.82&#10;  C 111.95 175.83 115.54 173.85 116.00 169.38&#10;  A 1.04 1.04 0.0 0 0 115.21 168.27&#10;  Q 110.92 167.20 107.37 166.67&#10;  Q 105.95 166.46 103.53 167.78&#10;  Q 99.76 169.86 98.33 171.01"/>
<path stroke="#5e5b51" d="&#10;  M 98.33 171.01&#10;  Q 95.94 172.13 94.56 175.30&#10;  Q 92.70 179.55 91.43 184.00"/>
<path stroke="#5e5b51" d="&#10;  M 69.11 184.00&#10;  Q 69.90 183.92 70.29 183.64&#10;  Q 70.58 183.43 70.33 183.19&#10;  Q 70.13 183.00 69.66 183.09"/>
<path stroke="#414140" d="&#10;  M 69.66 183.09&#10;  L 70.99 179.89&#10;  Q 71.16 179.48 70.72 179.55&#10;  Q 67.44 180.04 65.64 177.37&#10;  Q 60.42 169.59 55.44 161.21"/>
<path stroke="#442424" d="&#10;  M 55.44 161.21&#10;  L 50.72 153.08&#10;  Q 50.48 152.66 50.53 152.17&#10;  Q 50.91 148.91 49.87 148.19"/>
<path stroke="#6a5d53" d="&#10;  M 49.87 148.19&#10;  L 59.05 146.09"/>
<path stroke="#5e5b51" d="&#10;  M 123.17 138.08&#10;  Q 130.10 134.46 134.98 129.59"/>
<path stroke="#424449" d="&#10;  M 134.98 129.59&#10;  Q 139.37 127.69 142.62 125.14&#10;  C 150.87 118.66 158.55 111.49 166.31 104.42&#10;  C 167.42 103.41 169.06 102.44 170.07 101.69&#10;  Q 171.04 100.96 170.13 100.17&#10;  Q 168.99 99.18 163.42 95.07&#10;  Q 160.85 93.18 157.85 92.65&#10;  Q 154.62 92.08 151.69 91.57&#10;  Q 151.18 91.48 151.14 90.97&#10;  L 150.99 88.96"/>
<path stroke="#6c6a61" d="&#10;  M 134.98 129.59&#10;  Q 137.23 124.26 139.04 119.18&#10;  C 139.45 118.03 140.20 117.22 140.96 116.32"/>
<path stroke="#959080" d="&#10;  M 140.96 116.32&#10;  Q 145.10 114.20 148.24 110.79&#10;  A 1.37 1.34 68.5 0 0 148.59 109.96&#10;  L 149.16 101.09&#10;  A 0.89 0.89 0.0 0 0 148.66 100.23&#10;  Q 147.82 99.82 147.95 100.49"/>
<path stroke="#cfc2a0" d="&#10;  M 61.85 138.94&#10;  Q 60.66 139.29 59.06 138.98"/>
<path stroke="#ece6bd" d="&#10;  M 59.06 138.98&#10;  Q 56.05 134.55 55.78 132.92&#10;  Q 55.09 128.76 54.01 127.01&#10;  Q 49.44 119.62 45.90 112.52&#10;  Q 45.14 111.01 44.82 112.67&#10;  Q 44.41 114.78 45.07 117.33"/>
<path stroke="#999a86" d="&#10;  M 56.88 96.99&#10;  L 48.22 97.49&#10;  Q 46.92 97.56 47.33 98.79&#10;  L 47.82 100.28&#10;  Q 48.27 101.65 49.71 101.57&#10;  L 58.15 101.09&#10;  Q 58.99 101.04 58.72 100.24&#10;  L 57.83 97.55&#10;  Q 57.63 96.95 56.88 96.99"/>
<path stroke="#691811" d="&#10;  M 174.59 131.06&#10;  L 174.54 118.11&#10;  Q 174.54 117.92 174.36 117.90&#10;  L 174.09 117.86&#10;  Q 173.92 117.83 173.89 118.01&#10;  L 172.56 127.57&#10;  Q 172.48 128.11 171.95 128.23&#10;  Q 170.50 128.56 169.35 127.49"/>
<path stroke="#b1a688" d="&#10;  M 140.96 116.32&#10;  Q 140.49 116.47 140.30 116.25&#10;  Q 140.18 116.10 140.27 115.73&#10;  Q 141.24 112.08 141.65 109.33"/>
<path stroke="#976f5b" d="&#10;  M 46.85 122.25&#10;  L 48.71 125.52"/>
<path stroke="#aa8886" d="&#10;  M 48.71 125.52&#10;  C 50.37 128.45 52.43 131.41 53.16 134.70&#10;  Q 53.63 136.81 53.93 138.96"/>
<path stroke="#7a4c3e" d="&#10;  M 53.93 138.96&#10;  Q 53.95 139.14 53.94 139.29&#10;  Q 53.91 139.72 53.48 139.76&#10;  L 43.87 140.78"/>
<path stroke="#a44a2c" d="&#10;  M 43.87 140.78&#10;  L 38.50 142.91&#10;  Q 38.01 143.10 37.84 143.61&#10;  Q 37.46 144.77 37.70 146.52&#10;  Q 38.03 148.95 40.22 149.17&#10;  Q 42.39 149.38 44.64 148.96"/>
<path stroke="#7a4c3e" d="&#10;  M 44.64 148.96&#10;  L 49.87 148.19"/>
<path stroke="#51302b" d="&#10;  M 55.44 161.21&#10;  L 49.97 175.22&#10;  A 1.04 1.04 0.0 0 1 48.59 175.80&#10;  Q 43.70 173.69 36.85 173.58"/>
<path stroke="#7a4c3e" d="&#10;  M 36.85 173.58&#10;  Q 35.01 176.87 35.37 181.78&#10;  A 0.79 0.78 -24.5 0 1 35.13 182.41&#10;  Q 34.76 182.77 34.89 183.25&#10;  Q 34.99 183.59 35.72 183.80&#10;  Q 36.21 183.94 36.76 184.00"/>
<path stroke="#bda98a" d="&#10;  M 59.06 138.98&#10;  Q 56.81 139.52 54.35 139.30"/>
<path stroke="#ede5d2" d="&#10;  M 54.35 139.30&#10;  L 55.55 139.03&#10;  Q 56.11 138.91 55.90 138.38&#10;  Q 55.00 136.03 55.09 133.48&#10;  Q 55.10 133.20 54.24 130.93&#10;  Q 53.76 129.64 52.85 128.88&#10;  Q 51.63 127.85 50.02 125.45&#10;  Q 49.65 124.89 49.22 124.74&#10;  Q 48.82 124.60 48.77 125.02&#10;  L 48.71 125.52"/>
<path stroke="#cfc2b5" d="&#10;  M 54.35 139.30&#10;  Q 54.40 139.12 53.93 138.96"/>
<path stroke="#8a6c57" d="&#10;  M 67.71 143.96&#10;  Q 63.73 144.47 62.72 144.50&#10;  Q 56.07 144.76 62.27 142.33&#10;  Q 65.45 141.09 70.54 138.73"/>
<path stroke="#c9845c" d="&#10;  M 44.64 148.96&#10;  Q 48.25 146.13 43.87 140.78"/>
<path stroke="#6b6758" d="&#10;  M 69.66 183.09&#10;  Q 64.50 181.68 59.69 182.59&#10;  Q 57.47 183.00 59.56 183.84&#10;  Q 59.69 183.89 60.75 183.85&#10;  Q 64.28 183.70 67.77 184.00"/>
<path stroke="#76695a" d="&#10;  M 40.52 184.00&#10;  Q 39.72 182.27 38.26 181.06&#10;  Q 37.88 180.74 37.91 180.24&#10;  Q 38.08 176.86 36.85 173.58"/>
<path stroke="#6b6758" d="&#10;  M 93.65 184.00&#10;  Q 96.85 177.90 98.33 171.01"/>
</g>
<path fill="#4d4d47" d="&#10;  M 2.00 0.00&#10;  Q 0.63 0.58 0.00 1.86&#10;  L 0.00 0.00&#10;  L 2.00 0.00&#10;  Z"/>
<path fill="#1b1b1b" d="&#10;  M 92.74 0.00&#10;  Q 93.85 0.04 94.18 0.45&#10;  Q 94.54 0.88 94.04 1.13&#10;  Q 91.65 2.32 90.94 5.10&#10;  A 1.34 1.34 0.0 0 0 92.15 6.77&#10;  Q 92.70 6.81 95.74 6.99&#10;  Q 97.22 7.07 97.24 8.24&#10;  A 0.67 0.66 84.4 0 1 96.70 8.91&#10;  C 95.38 9.16 94.13 10.61 92.86 10.60&#10;  Q 91.65 10.59 91.49 10.56&#10;  Q 88.85 10.11 86.18 11.90&#10;  A 1.89 1.88 -25.2 0 0 85.43 13.98&#10;  C 86.24 16.78 90.91 15.12 93.00 14.79&#10;  L 95.46 14.58&#10;  Q 95.93 14.54 95.90 15.01&#10;  L 95.84 15.96&#10;  Q 95.80 16.48 95.28 16.57&#10;  L 92.72 16.99&#10;  L 68.73 20.65&#10;  Q 64.47 17.07 72.48 18.33&#10;  Q 73.54 18.49 73.75 17.47&#10;  A 1.47 1.47 0.0 0 0 73.18 15.99&#10;  C 71.01 14.39 68.41 12.23 65.47 12.22&#10;  Q 62.73 12.21 62.08 14.76&#10;  Q 61.94 15.29 61.42 15.43&#10;  Q 58.42 16.20 57.33 16.29&#10;  Q 54.78 16.49 56.90 14.90&#10;  L 59.42 13.01&#10;  A 1.53 1.51 -49.7 0 0 59.23 10.44&#10;  Q 55.82 8.70 53.12 8.80&#10;  Q 51.72 8.85 52.66 9.88&#10;  Q 53.42 10.72 54.75 11.28&#10;  Q 55.18 11.47 55.61 11.26&#10;  Q 56.22 10.97 56.99 11.21&#10;  Q 57.55 11.38 57.27 11.90&#10;  Q 56.91 12.57 56.63 12.76&#10;  Q 56.20 13.05 55.79 12.73&#10;  Q 54.04 11.37 51.01 11.54&#10;  A 0.64 0.62 -89.4 0 0 50.42 12.13&#10;  L 50.40 12.44&#10;  A 0.63 0.62 -86.3 0 0 50.98 13.11&#10;  L 54.75 13.35&#10;  Q 55.42 13.39 54.92 13.85&#10;  Q 54.07 14.62 51.47 16.73&#10;  Q 50.47 17.54 49.36 17.78&#10;  Q 47.64 18.13 46.92 17.82&#10;  Q 41.79 15.58 38.37 19.74&#10;  A 0.53 0.53 0.0 0 0 38.70 20.60&#10;  L 41.41 20.98&#10;  Q 42.00 21.06 42.21 21.60&#10;  Q 42.61 22.62 41.86 23.21&#10;  Q 41.41 23.57 40.53 23.64&#10;  Q 39.37 23.72 39.10 23.50&#10;  Q 36.54 21.39 38.11 24.44&#10;  Q 39.35 26.86 43.43 27.49&#10;  Q 43.73 27.53 43.91 27.78&#10;  Q 44.16 28.14 44.75 27.89&#10;  Q 45.24 27.69 45.77 27.80&#10;  Q 47.26 28.11 47.32 29.93&#10;  L 38.76 37.42&#10;  Q 37.06 37.27 35.55 36.22&#10;  Q 34.75 35.66 34.04 36.05&#10;  Q 33.54 36.32 33.92 36.74&#10;  Q 34.74 37.62 34.79 38.40&#10;  Q 34.82 38.92 34.49 39.32&#10;  Q 32.94 41.17 29.88 41.77&#10;  A 1.86 1.86 0.0 0 0 28.52 44.32&#10;  Q 29.35 46.25 30.46 47.02&#10;  A 1.67 1.67 0.0 0 1 31.17 48.64&#10;  C 30.35 54.00 30.02 57.60 26.88 62.51&#10;  Q 25.17 65.18 24.01 67.70&#10;  Q 21.57 73.01 20.78 73.78&#10;  Q 17.34 77.08 14.49 79.78&#10;  Q 14.16 80.09 13.70 80.06&#10;  L 11.47 79.91&#10;  A 1.14 1.11 28.8 0 0 10.78 80.10&#10;  Q 9.08 81.27 8.91 82.72&#10;  Q 8.64 85.04 8.55 89.83&#10;  Q 8.50 92.62 10.10 90.34&#10;  C 11.08 88.94 11.76 87.45 13.25 86.14&#10;  Q 16.78 83.05 19.27 79.61&#10;  Q 21.43 76.63 20.97 80.25&#10;  Q 20.95 80.34 19.89 82.02&#10;  L 15.41 87.49&#10;  Q 15.09 87.88 14.97 88.36&#10;  L 11.99 101.00&#10;  Q 11.89 101.12 11.71 101.24&#10;  Q 10.49 108.36 8.49 112.47&#10;  C 5.84 117.92 3.67 121.93 5.00 126.96&#10;  Q 5.21 127.75 5.74 127.13&#10;  L 8.96 123.36&#10;  Q 9.19 123.09 9.56 123.14&#10;  L 14.20 123.78&#10;  A 1.48 1.47 11.4 0 0 15.84 122.69&#10;  L 17.51 116.22&#10;  L 21.25 114.13&#10;  A 1.25 1.25 0.0 0 1 23.05 114.84&#10;  L 24.01 117.73&#10;  A 1.47 1.46 82.0 0 0 25.32 118.73&#10;  Q 29.34 118.95 28.27 114.77&#10;  L 28.71 114.10&#10;  Q 29.02 113.61 29.47 113.98&#10;  L 29.86 114.32&#10;  A 0.81 0.80 25.5 0 1 30.13 115.07&#10;  Q 29.27 120.17 26.35 125.61&#10;  A 0.65 0.57 27.3 0 0 26.67 126.43&#10;  L 26.94 126.57&#10;  A 0.91 0.91 0.0 0 0 28.14 126.22&#10;  L 30.50 122.12&#10;  Q 31.58 120.26 32.11 122.34&#10;  Q 32.59 124.22 32.11 127.10&#10;  Q 31.95 128.05 32.60 128.76&#10;  L 36.67 133.20&#10;  Q 36.95 133.50 36.89 133.91&#10;  L 36.08 139.71&#10;  Q 36.02 140.12 35.60 140.08&#10;  C 29.48 139.47 26.15 135.62 21.82 131.18&#10;  Q 21.56 130.91 21.08 130.97&#10;  L 14.14 131.80&#10;  A 1.26 0.49 -1.4 0 0 13.25 132.17&#10;  Q 12.85 132.78 13.06 133.43&#10;  A 0.98 0.98 0.0 0 0 13.76 134.08&#10;  Q 16.28 134.71 18.39 136.19&#10;  Q 20.03 137.35 18.87 138.87&#10;  L 18.55 139.29&#10;  Q 17.29 140.96 15.70 139.60&#10;  L 12.45 136.83&#10;  A 1.39 1.39 0.0 0 0 10.18 138.15&#10;  L 10.82 141.40&#10;  Q 10.90 141.82 10.77 142.17&#10;  C 10.27 143.61 10.04 144.87 11.09 146.17&#10;  Q 13.36 149.01 14.97 150.55&#10;  Q 16.81 152.31 18.33 154.69&#10;  C 20.78 158.51 24.75 161.94 25.27 167.06&#10;  C 25.62 170.51 27.98 173.64 29.60 177.33&#10;  A 0.80 0.80 0.0 0 1 29.47 178.17&#10;  Q 28.83 178.91 27.23 179.47&#10;  Q 26.76 179.64 26.49 180.06&#10;  Q 25.32 181.88 27.11 183.18&#10;  Q 27.62 183.54 27.05 183.80&#10;  L 26.61 184.00&#10;  L 1.80 184.00&#10;  Q 0.76 183.33 0.00 182.32&#10;  L 0.00 1.86&#10;  Q 0.63 0.58 2.00 0.00&#10;  L 92.74 0.00&#10;  Z"/>
<path fill="#a01e1d" d="&#10;  M 101.38 0.00&#10;  Q 98.91 0.48 96.44 0.12&#10;  A 0.87 0.87 0.0 0 0 95.45 0.98&#10;  Q 95.45 1.22 95.96 1.28&#10;  C 96.96 1.40 97.80 0.65 99.05 0.93&#10;  A 0.53 0.53 0.0 0 1 99.29 1.84&#10;  L 97.34 3.63&#10;  Q 96.25 4.62 97.72 4.59&#10;  Q 104.27 4.45 103.37 9.86&#10;  A 1.04 1.04 0.0 0 0 104.33 11.07&#10;  L 105.61 11.15&#10;  Q 106.17 11.19 106.13 11.74&#10;  L 106.00 14.25&#10;  Q 102.69 14.65 97.30 14.16&#10;  Q 95.48 14.00 93.00 14.79&#10;  C 90.91 15.12 86.24 16.78 85.43 13.98&#10;  A 1.89 1.88 -25.2 0 1 86.18 11.90&#10;  Q 88.85 10.11 91.49 10.56&#10;  Q 91.65 10.59 92.86 10.60&#10;  C 94.13 10.61 95.38 9.16 96.70 8.91&#10;  A 0.67 0.66 84.4 0 0 97.24 8.24&#10;  Q 97.22 7.07 95.74 6.99&#10;  Q 92.70 6.81 92.15 6.77&#10;  A 1.34 1.34 0.0 0 1 90.94 5.10&#10;  Q 91.65 2.32 94.04 1.13&#10;  Q 94.54 0.88 94.18 0.45&#10;  Q 93.85 0.04 92.74 0.00&#10;  L 101.38 0.00&#10;  Z"/>
<path fill="#1b1b1b" d="&#10;  M 181.66 0.00&#10;  Q 183.43 0.46 184.00 2.34&#10;  L 184.00 182.12&#10;  L 182.32 184.00&#10;  L 174.99 184.00&#10;  L 158.46 162.04&#10;  Q 158.15 161.63 158.65 161.55&#10;  Q 160.20 161.28 162.09 162.05&#10;  L 171.16 171.01&#10;  Q 171.79 171.63 171.66 170.75&#10;  Q 170.68 164.28 165.86 160.37&#10;  Q 163.91 158.78 161.67 157.11&#10;  L 163.62 149.30&#10;  Q 166.63 158.16 173.26 164.86&#10;  Q 174.15 165.76 174.66 166.14&#10;  A 1.95 1.94 -76.5 0 0 177.74 164.25&#10;  Q 177.13 160.70 176.22 155.68&#10;  C 175.79 153.32 174.28 152.20 174.09 149.66&#10;  Q 173.78 145.75 171.26 142.53&#10;  Q 170.71 141.82 169.64 136.38&#10;  Q 169.54 135.85 169.81 135.37&#10;  L 171.12 133.10&#10;  Q 171.35 132.70 171.33 132.24&#10;  Q 171.25 130.63 171.88 129.43&#10;  A 1.14 1.14 0.0 0 1 173.95 129.52&#10;  L 174.59 131.06&#10;  Q 174.49 132.29 174.88 133.46&#10;  A 1.26 1.25 3.4 0 0 175.56 134.22&#10;  C 176.49 134.64 176.83 134.83 177.18 135.99&#10;  Q 177.96 138.57 179.49 140.65&#10;  A 0.69 0.69 0.0 0 0 180.73 140.34&#10;  C 181.78 133.40 181.05 126.10 181.40 119.54&#10;  Q 181.62 115.50 179.85 112.22&#10;  Q 179.61 111.79 179.15 111.61&#10;  Q 178.26 111.27 178.37 109.78&#10;  Q 178.60 106.83 180.81 106.09&#10;  Q 181.27 105.94 181.17 105.47&#10;  Q 181.09 105.12 180.69 104.96&#10;  Q 180.41 104.84 180.57 104.58&#10;  L 180.77 104.22&#10;  Q 181.02 103.79 181.03 103.29&#10;  Q 181.07 100.30 181.40 93.76&#10;  Q 181.44 92.96 180.29 92.08&#10;  Q 179.86 91.75 179.55 92.19&#10;  Q 177.09 95.68 179.04 98.82&#10;  C 179.95 100.29 180.12 101.38 178.90 102.58&#10;  Q 178.57 102.92 178.18 102.65&#10;  L 176.47 101.48&#10;  Q 175.97 98.50 175.27 97.75&#10;  Q 172.33 94.57 169.67 91.58&#10;  A 4.45 4.41 74.9 0 0 167.28 90.19&#10;  L 159.73 88.61&#10;  L 168.13 84.42&#10;  Q 168.32 84.33 168.35 84.12&#10;  L 168.39 83.83&#10;  A 0.45 0.45 0.0 0 0 167.78 83.34&#10;  Q 164.13 84.68 159.40 87.08&#10;  Q 157.72 87.93 156.88 86.82&#10;  Q 156.55 86.39 156.75 85.89&#10;  Q 157.26 84.63 157.11 83.46&#10;  Q 157.85 81.25 159.82 80.29&#10;  L 169.66 74.67&#10;  Q 170.42 74.24 169.66 73.84&#10;  L 169.25 73.62&#10;  A 0.93 0.88 43.3 0 0 168.36 73.62&#10;  L 159.82 78.46&#10;  L 157.08 74.58&#10;  Q 156.78 74.16 156.96 73.67&#10;  Q 157.14 73.17 157.60 73.01&#10;  Q 159.18 72.47 157.93 71.41&#10;  Q 157.28 70.87 157.20 70.29&#10;  Q 157.13 69.77 157.56 69.48&#10;  Q 161.08 67.05 158.52 63.45&#10;  Q 158.19 62.99 158.67 63.06&#10;  L 159.42 63.17&#10;  Q 159.67 63.20 159.68 63.22&#10;  Q 161.07 66.49 164.43 67.15&#10;  Q 164.92 67.25 164.77 66.77&#10;  Q 164.37 65.49 164.51 64.85&#10;  C 165.12 61.89 166.22 59.18 168.74 57.31&#10;  Q 170.05 56.34 171.45 54.97&#10;  Q 171.70 54.72 171.43 54.50&#10;  L 170.74 53.91&#10;  A 0.76 0.73 -70.5 0 1 170.48 53.34&#10;  Q 170.44 51.49 168.47 48.38&#10;  Q 162.39 38.76 157.93 34.11&#10;  Q 157.13 33.28 157.37 32.48&#10;  Q 157.59 31.76 158.16 32.25&#10;  L 170.65 42.91&#10;  A 0.61 0.61 0.0 0 0 171.66 42.51&#10;  Q 171.87 40.51 170.93 38.49&#10;  Q 170.72 38.04 170.72 37.54&#10;  C 170.72 35.36 168.04 30.11 165.39 33.15&#10;  Q 165.02 33.58 164.57 33.24&#10;  Q 161.46 30.90 158.53 29.00&#10;  C 156.70 27.81 155.45 25.77 154.18 24.54&#10;  C 152.73 23.11 152.01 20.86 150.59 19.34&#10;  Q 150.23 18.96 149.72 18.83&#10;  L 145.94 17.85&#10;  A 0.45 0.44 -2.0 0 0 145.40 18.42&#10;  L 146.46 21.61&#10;  A 0.45 0.45 0.0 0 1 146.20 22.17&#10;  Q 145.52 22.45 144.91 22.39&#10;  A 0.80 0.79 -6.1 0 1 144.23 21.85&#10;  L 143.35 19.20&#10;  Q 143.18 18.70 142.78 19.03&#10;  C 141.20 20.32 141.64 24.18 142.14 26.01&#10;  Q 142.25 26.39 143.98 27.84&#10;  Q 144.38 28.17 144.40 28.69&#10;  Q 144.43 29.37 144.03 30.29&#10;  A 1.14 1.13 -43.0 0 0 144.00 31.10&#10;  Q 145.89 36.56 149.26 44.05&#10;  C 150.16 46.06 151.57 44.92 152.78 45.82&#10;  Q 153.37 46.25 153.27 47.12&#10;  L 146.45 45.64&#10;  Q 147.12 45.32 146.88 44.87&#10;  Q 145.26 41.84 141.94 36.13&#10;  Q 140.51 33.68 139.23 30.44&#10;  Q 138.82 29.38 138.50 29.17&#10;  Q 136.33 27.71 137.19 30.02&#10;  Q 138.05 32.32 136.82 32.74&#10;  Q 133.98 29.88 130.51 28.00&#10;  Q 121.61 23.19 112.87 17.69&#10;  Q 113.91 14.64 106.00 14.25&#10;  L 106.13 11.74&#10;  Q 106.17 11.19 105.61 11.15&#10;  L 104.33 11.07&#10;  A 1.04 1.04 0.0 0 1 103.37 9.86&#10;  Q 104.27 4.45 97.72 4.59&#10;  Q 96.25 4.62 97.34 3.63&#10;  L 99.29 1.84&#10;  A 0.53 0.53 0.0 0 0 99.05 0.93&#10;  C 97.80 0.65 96.96 1.40 95.96 1.28&#10;  Q 95.45 1.22 95.45 0.98&#10;  A 0.87 0.87 0.0 0 1 96.44 0.12&#10;  Q 98.91 0.48 101.38 0.00&#10;  L 181.66 0.00&#10;  Z"/>
<path fill="#4d4d47" d="&#10;  M 184.00 0.00&#10;  L 184.00 2.34&#10;  Q 183.43 0.46 181.66 0.00&#10;  L 184.00 0.00&#10;  Z"/>
<path fill="#a01e1d" d="&#10;  M 68.73 20.65&#10;  L 57.41 24.26&#10;  Q 51.66 25.19 47.32 29.93&#10;  Q 47.26 28.11 45.77 27.80&#10;  Q 45.24 27.69 44.75 27.89&#10;  Q 44.16 28.14 43.91 27.78&#10;  Q 43.73 27.53 43.43 27.49&#10;  Q 39.35 26.86 38.11 24.44&#10;  Q 36.54 21.39 39.10 23.50&#10;  Q 39.37 23.72 40.53 23.64&#10;  Q 41.41 23.57 41.86 23.21&#10;  Q 42.61 22.62 42.21 21.60&#10;  Q 42.00 21.06 41.41 20.98&#10;  L 38.70 20.60&#10;  A 0.53 0.53 0.0 0 1 38.37 19.74&#10;  Q 41.79 15.58 46.92 17.82&#10;  Q 47.64 18.13 49.36 17.78&#10;  Q 50.47 17.54 51.47 16.73&#10;  Q 54.07 14.62 54.92 13.85&#10;  Q 55.42 13.39 54.75 13.35&#10;  L 50.98 13.11&#10;  A 0.63 0.62 -86.3 0 1 50.40 12.44&#10;  L 50.42 12.13&#10;  A 0.64 0.62 -89.4 0 1 51.01 11.54&#10;  Q 54.04 11.37 55.79 12.73&#10;  Q 56.20 13.05 56.63 12.76&#10;  Q 56.91 12.57 57.27 11.90&#10;  Q 57.55 11.38 56.99 11.21&#10;  Q 56.22 10.97 55.61 11.26&#10;  Q 55.18 11.47 54.75 11.28&#10;  Q 53.42 10.72 52.66 9.88&#10;  Q 51.72 8.85 53.12 8.80&#10;  Q 55.82 8.70 59.23 10.44&#10;  A 1.53 1.51 -49.7 0 1 59.42 13.01&#10;  L 56.90 14.90&#10;  Q 54.78 16.49 57.33 16.29&#10;  Q 58.42 16.20 61.42 15.43&#10;  Q 61.94 15.29 62.08 14.76&#10;  Q 62.73 12.21 65.47 12.22&#10;  C 68.41 12.23 71.01 14.39 73.18 15.99&#10;  A 1.47 1.47 0.0 0 1 73.75 17.47&#10;  Q 73.54 18.49 72.48 18.33&#10;  Q 64.47 17.07 68.73 20.65&#10;  Z&#10;  M 51.39 23.43&#10;  A 0.35 0.35 0.0 0 0 51.63 23.38&#10;  Q 51.87 23.21 51.91 22.99&#10;  Q 51.98 22.53 51.56 22.35&#10;  L 43.55 18.93&#10;  A 0.68 0.48 73.5 0 0 43.19 20.01&#10;  L 44.85 22.10&#10;  A 1.75 1.43 -10.8 0 0 45.90 22.67&#10;  L 51.39 23.43&#10;  Z"/>
<path fill="#7d1d13" d="&#10;  M 106.00 14.25&#10;  Q 113.91 14.64 112.87 17.69&#10;  Q 108.87 16.46 104.15 17.32&#10;  L 92.72 16.99&#10;  L 95.28 16.57&#10;  Q 95.80 16.48 95.84 15.96&#10;  L 95.90 15.01&#10;  Q 95.93 14.54 95.46 14.58&#10;  L 93.00 14.79&#10;  Q 95.48 14.00 97.30 14.16&#10;  Q 102.69 14.65 106.00 14.25&#10;  Z"/>
<path fill="#dacca7" d="&#10;  M 104.15 17.32&#10;  Q 114.60 20.64 121.31 28.65&#10;  Q 124.55 32.52 126.56 34.49&#10;  Q 131.62 39.45 136.06 45.48&#10;  Q 119.93 45.39 113.02 46.08&#10;  Q 97.72 47.62 53.39 53.37&#10;  Q 46.30 46.11 42.00 37.71&#10;  A 1.24 1.24 0.0 0 1 42.22 36.27&#10;  Q 45.35 33.08 48.75 30.55&#10;  C 52.32 27.90 54.48 26.23 58.21 25.22&#10;  A 0.78 0.78 0.0 0 0 58.71 24.12&#10;  Q 58.60 23.92 57.41 24.26&#10;  L 68.73 20.65&#10;  L 92.72 16.99&#10;  L 104.15 17.32&#10;  Z"/>
<path fill="#888069" d="&#10;  M 112.87 17.69&#10;  Q 121.61 23.19 130.51 28.00&#10;  Q 133.98 29.88 136.82 32.74&#10;  L 145.64 45.21&#10;  L 136.06 45.48&#10;  Q 131.62 39.45 126.56 34.49&#10;  Q 124.55 32.52 121.31 28.65&#10;  Q 114.60 20.64 104.15 17.32&#10;  Q 108.87 16.46 112.87 17.69&#10;  Z"/>
<path fill="#a01e1d" d="&#10;  M 159.82 78.46&#10;  L 159.82 80.29&#10;  Q 157.85 81.25 157.11 83.46&#10;  L 152.80 84.63&#10;  A 0.68 0.68 0.0 0 1 151.95 84.07&#10;  L 151.57 81.63&#10;  L 152.29 71.57&#10;  Q 154.73 72.94 154.64 69.48&#10;  Q 154.55 65.60 155.23 64.06&#10;  Q 155.42 63.61 155.31 63.14&#10;  Q 153.87 56.90 153.88 49.06&#10;  Q 153.88 48.59 153.66 48.06&#10;  Q 153.46 47.57 153.27 47.12&#10;  Q 153.37 46.25 152.78 45.82&#10;  C 151.57 44.92 150.16 46.06 149.26 44.05&#10;  Q 145.89 36.56 144.00 31.10&#10;  A 1.14 1.13 -43.0 0 1 144.03 30.29&#10;  Q 144.43 29.37 144.40 28.69&#10;  Q 144.38 28.17 143.98 27.84&#10;  Q 142.25 26.39 142.14 26.01&#10;  C 141.64 24.18 141.20 20.32 142.78 19.03&#10;  Q 143.18 18.70 143.35 19.20&#10;  L 144.23 21.85&#10;  A 0.80 0.79 -6.1 0 0 144.91 22.39&#10;  Q 145.52 22.45 146.20 22.17&#10;  A 0.45 0.45 0.0 0 0 146.46 21.61&#10;  L 145.40 18.42&#10;  A 0.45 0.44 -2.0 0 1 145.94 17.85&#10;  L 149.72 18.83&#10;  Q 150.23 18.96 150.59 19.34&#10;  C 152.01 20.86 152.73 23.11 154.18 24.54&#10;  C 155.45 25.77 156.70 27.81 158.53 29.00&#10;  Q 161.46 30.90 164.57 33.24&#10;  Q 165.02 33.58 165.39 33.15&#10;  C 168.04 30.11 170.72 35.36 170.72 37.54&#10;  Q 170.72 38.04 170.93 38.49&#10;  Q 171.87 40.51 171.66 42.51&#10;  A 0.61 0.61 0.0 0 1 170.65 42.91&#10;  L 158.16 32.25&#10;  Q 157.59 31.76 157.37 32.48&#10;  Q 157.13 33.28 157.93 34.11&#10;  Q 162.39 38.76 168.47 48.38&#10;  Q 170.44 51.49 170.48 53.34&#10;  A 0.76 0.73 -70.5 0 0 170.74 53.91&#10;  L 171.43 54.50&#10;  Q 171.70 54.72 171.45 54.97&#10;  Q 170.05 56.34 168.74 57.31&#10;  C 166.22 59.18 165.12 61.89 164.51 64.85&#10;  Q 164.37 65.49 164.77 66.77&#10;  Q 164.92 67.25 164.43 67.15&#10;  Q 161.07 66.49 159.68 63.22&#10;  Q 159.67 63.20 159.42 63.17&#10;  L 158.67 63.06&#10;  Q 158.19 62.99 158.52 63.45&#10;  Q 161.08 67.05 157.56 69.48&#10;  Q 157.13 69.77 157.20 70.29&#10;  Q 157.28 70.87 157.93 71.41&#10;  Q 159.18 72.47 157.60 73.01&#10;  Q 157.14 73.17 156.96 73.67&#10;  Q 156.78 74.16 157.08 74.58&#10;  L 159.82 78.46&#10;  Z&#10;  M 156.13 37.78&#10;  Q 156.30 38.02 156.49 37.80&#10;  L 156.77 37.47&#10;  Q 156.90 37.31 156.76 37.16&#10;  C 154.27 34.42 152.24 31.30 151.55 27.16&#10;  Q 151.20 25.03 149.95 22.17&#10;  Q 148.90 19.77 148.20 22.36&#10;  C 147.90 23.46 148.36 24.99 148.99 26.14&#10;  Q 152.38 32.34 156.13 37.78&#10;  Z&#10;  M 158.89 51.92&#10;  A 1.46 1.45 -51.1 0 1 160.60 51.73&#10;  L 165.55 54.59&#10;  Q 166.12 54.92 166.45 54.35&#10;  L 166.64 54.01&#10;  A 0.53 0.52 -51.1 0 0 166.58 53.40&#10;  L 156.06 41.93&#10;  Q 154.38 40.09 154.70 42.56&#10;  C 155.00 44.81 154.93 46.21 155.79 47.73&#10;  Q 156.47 48.91 157.60 51.85&#10;  A 0.68 0.68 0.0 0 0 158.69 52.10&#10;  L 158.89 51.92&#10;  Z"/>
<path fill="#1b1b1b" d="&#10;  M 51.39 23.43&#10;  L 45.90 22.67&#10;  A 1.75 1.43 -10.8 0 1 44.85 22.10&#10;  L 43.19 20.01&#10;  A 0.68 0.48 73.5 0 1 43.55 18.93&#10;  L 51.56 22.35&#10;  Q 51.98 22.53 51.91 22.99&#10;  Q 51.87 23.21 51.63 23.38&#10;  A 0.35 0.35 0.0 0 1 51.39 23.43&#10;  Z"/>
<path fill="#432b22" d="&#10;  M 156.13 37.78&#10;  Q 152.38 32.34 148.99 26.14&#10;  C 148.36 24.99 147.90 23.46 148.20 22.36&#10;  Q 148.90 19.77 149.95 22.17&#10;  Q 151.20 25.03 151.55 27.16&#10;  C 152.24 31.30 154.27 34.42 156.76 37.16&#10;  Q 156.90 37.31 156.77 37.47&#10;  L 156.49 37.80&#10;  Q 156.30 38.02 156.13 37.78&#10;  Z"/>
<path fill="#fffefd" d="&#10;  M 57.41 24.26&#10;  Q 58.60 23.92 58.71 24.12&#10;  A 0.78 0.78 0.0 0 1 58.21 25.22&#10;  C 54.48 26.23 52.32 27.90 48.75 30.55&#10;  Q 45.35 33.08 42.22 36.27&#10;  A 1.24 1.24 0.0 0 0 42.00 37.71&#10;  Q 46.30 46.11 53.39 53.37&#10;  L 35.19 57.34&#10;  L 38.76 37.42&#10;  L 47.32 29.93&#10;  Q 51.66 25.19 57.41 24.26&#10;  Z"/>
<path fill="#a01e1d" d="&#10;  M 146.45 45.64&#10;  L 145.64 45.21&#10;  L 136.82 32.74&#10;  Q 138.05 32.32 137.19 30.02&#10;  Q 136.33 27.71 138.50 29.17&#10;  Q 138.82 29.38 139.23 30.44&#10;  Q 140.51 33.68 141.94 36.13&#10;  Q 145.26 41.84 146.88 44.87&#10;  Q 147.12 45.32 146.45 45.64&#10;  Z"/>
<path fill="#7d1d13" d="&#10;  M 38.76 37.42&#10;  L 35.19 57.34&#10;  Q 33.82 57.97 32.53 57.91&#10;  A 1.25 1.24 -81.7 0 0 31.25 58.87&#10;  Q 30.27 63.10 31.03 67.06&#10;  C 31.94 71.81 31.62 75.94 32.87 80.63&#10;  C 33.08 81.44 32.89 81.70 32.94 82.30&#10;  Q 32.98 82.84 33.48 82.95&#10;  Q 35.20 83.33 36.97 82.73&#10;  A 1.85 1.82 41.0 0 1 37.93 82.67&#10;  Q 38.83 82.87 39.58 82.71&#10;  Q 39.80 84.96 40.30 86.85&#10;  C 40.75 88.52 41.96 89.64 42.38 91.47&#10;  Q 43.00 94.14 43.57 96.83&#10;  Q 44.15 99.61 43.86 102.22&#10;  Q 43.06 109.33 42.38 116.49&#10;  Q 42.33 117.00 42.80 117.19&#10;  Q 43.67 117.54 45.07 117.33&#10;  Q 45.86 117.90 45.59 119.08&#10;  Q 45.48 119.57 45.70 120.01&#10;  L 46.85 122.25&#10;  Q 43.45 123.14 40.42 121.93&#10;  C 37.42 120.73 35.61 117.89 33.79 116.24&#10;  C 31.41 114.07 29.64 111.17 27.17 109.32&#10;  Q 26.77 109.02 26.64 109.50&#10;  Q 26.57 109.78 26.82 110.04&#10;  Q 27.14 110.37 27.10 110.82&#10;  Q 26.95 113.02 28.27 114.77&#10;  Q 29.34 118.95 25.32 118.73&#10;  A 1.47 1.46 82.0 0 1 24.01 117.73&#10;  L 23.05 114.84&#10;  A 1.25 1.25 0.0 0 0 21.25 114.13&#10;  L 17.51 116.22&#10;  L 13.32 114.24&#10;  Q 12.82 114.00 12.73 113.49&#10;  L 12.05 109.77&#10;  Q 11.62 107.39 13.59 108.86&#10;  L 15.43 110.23&#10;  A 0.48 0.41 -57.4 0 0 16.07 110.03&#10;  Q 16.28 109.63 15.88 109.01&#10;  Q 13.47 105.26 11.71 101.24&#10;  Q 11.89 101.12 11.99 101.00&#10;  Q 15.11 99.68 16.05 98.21&#10;  C 18.33 94.64 19.44 92.85 22.30 91.20&#10;  A 0.49 0.49 0.0 0 1 23.04 91.60&#10;  L 23.68 102.65&#10;  A 1.66 1.66 0.0 0 0 25.44 104.22&#10;  L 29.54 103.99&#10;  Q 30.90 103.91 30.90 102.55&#10;  Q 30.91 95.46 30.64 91.09&#10;  Q 30.27 85.23 25.87 82.01&#10;  A 0.85 0.84 -70.1 0 0 24.53 82.64&#10;  L 24.11 89.17&#10;  Q 24.08 89.56 23.69 89.53&#10;  L 23.28 89.51&#10;  Q 22.99 89.49 22.95 89.20&#10;  L 22.01 83.10&#10;  Q 21.93 82.57 21.45 82.34&#10;  Q 20.83 82.04 19.89 82.02&#10;  Q 20.95 80.34 20.97 80.25&#10;  Q 21.43 76.63 19.27 79.61&#10;  Q 16.78 83.05 13.25 86.14&#10;  C 11.76 87.45 11.08 88.94 10.10 90.34&#10;  Q 8.50 92.62 8.55 89.83&#10;  Q 8.64 85.04 8.91 82.72&#10;  Q 9.08 81.27 10.78 80.10&#10;  A 1.14 1.11 28.8 0 1 11.47 79.91&#10;  L 13.70 80.06&#10;  Q 14.16 80.09 14.49 79.78&#10;  Q 17.34 77.08 20.78 73.78&#10;  Q 21.57 73.01 24.01 67.70&#10;  Q 25.17 65.18 26.88 62.51&#10;  C 30.02 57.60 30.35 54.00 31.17 48.64&#10;  A 1.67 1.67 0.0 0 0 30.46 47.02&#10;  Q 29.35 46.25 28.52 44.32&#10;  A 1.86 1.86 0.0 0 1 29.88 41.77&#10;  Q 32.94 41.17 34.49 39.32&#10;  Q 34.82 38.92 34.79 38.40&#10;  Q 34.74 37.62 33.92 36.74&#10;  Q 33.54 36.32 34.04 36.05&#10;  Q 34.75 35.66 35.55 36.22&#10;  Q 37.06 37.27 38.76 37.42&#10;  Z"/>
<path fill="#1b1b1b" d="&#10;  M 158.89 51.92&#10;  L 158.69 52.10&#10;  A 0.68 0.68 0.0 0 1 157.60 51.85&#10;  Q 156.47 48.91 155.79 47.73&#10;  C 154.93 46.21 155.00 44.81 154.70 42.56&#10;  Q 154.38 40.09 156.06 41.93&#10;  L 166.58 53.40&#10;  A 0.53 0.52 -51.1 0 1 166.64 54.01&#10;  L 166.45 54.35&#10;  Q 166.12 54.92 165.55 54.59&#10;  L 160.60 51.73&#10;  A 1.46 1.45 -51.1 0 0 158.89 51.92&#10;  Z"/>
<path fill="#343539" d="&#10;  M 145.64 45.21&#10;  L 146.45 45.64&#10;  L 153.27 47.12&#10;  Q 153.46 47.57 153.66 48.06&#10;  Q 153.88 48.59 153.88 49.06&#10;  Q 153.87 56.90 155.31 63.14&#10;  Q 155.42 63.61 155.23 64.06&#10;  Q 154.55 65.60 154.64 69.48&#10;  Q 154.73 72.94 152.29 71.57&#10;  L 141.79 72.70&#10;  L 128.97 74.04&#10;  L 108.30 75.89&#10;  L 87.90 78.07&#10;  L 51.94 81.56&#10;  L 39.58 82.71&#10;  Q 38.83 82.87 37.93 82.67&#10;  A 1.85 1.82 41.0 0 0 36.97 82.73&#10;  Q 35.20 83.33 33.48 82.95&#10;  Q 32.98 82.84 32.94 82.30&#10;  C 32.89 81.70 33.08 81.44 32.87 80.63&#10;  C 31.62 75.94 31.94 71.81 31.03 67.06&#10;  Q 30.27 63.10 31.25 58.87&#10;  A 1.25 1.24 -81.7 0 1 32.53 57.91&#10;  Q 33.82 57.97 35.19 57.34&#10;  L 53.39 53.37&#10;  Q 97.72 47.62 113.02 46.08&#10;  Q 119.93 45.39 136.06 45.48&#10;  L 145.64 45.21&#10;  Z"/>
<path fill="#888069" d="&#10;  M 152.29 71.57&#10;  L 151.57 81.63&#10;  Q 150.55 79.66 150.17 77.43&#10;  Q 150.06 76.76 149.70 76.52&#10;  Q 149.27 76.23 148.62 76.21&#10;  Q 145.68 73.24 141.79 72.70&#10;  L 152.29 71.57&#10;  Z"/>
<path fill="#dacca7" d="&#10;  M 141.79 72.70&#10;  Q 145.68 73.24 148.62 76.21&#10;  C 146.56 76.48 145.03 76.62 143.96 78.57&#10;  Q 142.56 81.12 141.94 84.23&#10;  Q 140.13 93.30 141.26 101.89&#10;  C 140.73 105.91 140.59 109.81 138.44 113.53&#10;  Q 138.14 114.04 137.54 114.08&#10;  L 133.16 114.33&#10;  A 0.62 0.62 0.0 0 0 132.63 115.19&#10;  Q 133.24 116.61 132.43 118.42&#10;  Q 129.75 124.46 128.11 128.97&#10;  C 127.02 131.98 124.77 134.99 123.17 138.08&#10;  Q 118.53 143.47 115.39 145.89&#10;  Q 113.44 147.39 101.98 154.50&#10;  C 100.27 155.56 97.20 156.64 94.82 157.07&#10;  Q 86.24 158.60 82.66 159.53&#10;  Q 79.85 160.26 77.38 159.73&#10;  Q 74.17 159.06 68.71 158.82&#10;  Q 68.19 158.79 67.88 158.37&#10;  L 59.05 146.09&#10;  L 63.22 144.85&#10;  Q 66.25 146.58 69.28 147.12&#10;  C 72.56 147.70 77.19 148.68 80.90 147.97&#10;  Q 84.77 147.24 87.65 147.02&#10;  C 89.87 146.85 90.90 145.67 92.09 143.82&#10;  C 94.01 140.82 95.17 137.44 98.08 135.40&#10;  C 101.29 133.16 104.44 131.71 107.22 128.71&#10;  Q 111.43 124.17 115.29 119.81&#10;  Q 119.19 119.05 121.71 115.98&#10;  Q 123.15 114.22 123.47 111.76&#10;  Q 123.67 110.26 122.56 111.28&#10;  Q 122.50 111.33 121.88 111.66&#10;  Q 122.21 107.86 122.55 104.02&#10;  Q 122.89 100.21 123.78 96.45&#10;  Q 126.39 85.31 128.97 74.04&#10;  L 141.79 72.70&#10;  Z&#10;  M 126.95 114.76&#10;  A 0.27 0.27 0.0 0 0 126.94 114.27&#10;  Q 125.96 113.88 125.22 114.08&#10;  A 0.46 0.46 0.0 0 0 125.14 114.93&#10;  Q 125.83 115.29 126.95 114.76&#10;  Z"/>
<path fill="#7d1d13" d="&#10;  M 159.82 80.29&#10;  L 159.82 78.46&#10;  L 168.36 73.62&#10;  A 0.93 0.88 43.3 0 1 169.25 73.62&#10;  L 169.66 73.84&#10;  Q 170.42 74.24 169.66 74.67&#10;  L 159.82 80.29&#10;  Z"/>
<path fill="#f6ae86" d="&#10;  M 128.97 74.04&#10;  Q 126.39 85.31 123.78 96.45&#10;  Q 122.89 100.21 122.55 104.02&#10;  Q 122.21 107.86 121.88 111.66&#10;  Q 119.53 116.14 115.29 119.81&#10;  Q 111.43 124.17 107.22 128.71&#10;  C 104.44 131.71 101.29 133.16 98.08 135.40&#10;  C 95.17 137.44 94.01 140.82 92.09 143.82&#10;  C 90.90 145.67 89.87 146.85 87.65 147.02&#10;  Q 84.77 147.24 80.90 147.97&#10;  C 77.19 148.68 72.56 147.70 69.28 147.12&#10;  Q 66.25 146.58 63.22 144.85&#10;  Q 65.35 144.96 67.71 143.96&#10;  Q 70.16 143.71 72.01 142.26&#10;  Q 72.42 141.94 72.93 142.08&#10;  C 73.70 142.30 74.00 142.45 74.96 142.36&#10;  Q 79.84 141.90 86.51 142.13&#10;  Q 86.91 142.15 87.15 141.84&#10;  Q 87.53 141.34 86.93 141.18&#10;  L 74.20 137.91&#10;  Q 73.50 137.73 73.85 137.10&#10;  Q 74.04 136.77 74.61 136.35&#10;  Q 77.35 134.38 81.08 131.85&#10;  Q 81.24 131.74 81.13 131.59&#10;  Q 81.06 131.48 80.93 131.43&#10;  Q 80.78 131.36 80.56 131.44&#10;  Q 71.79 134.46 68.72 135.52&#10;  Q 65.15 136.76 68.93 136.94&#10;  Q 69.01 136.94 70.90 137.16&#10;  A 0.66 0.66 0.0 0 1 71.37 138.19&#10;  Q 71.11 138.56 70.54 138.73&#10;  L 61.85 138.94&#10;  Q 63.79 136.44 63.36 133.58&#10;  Q 62.80 129.78 62.80 129.60&#10;  Q 62.83 124.85 63.38 120.37&#10;  Q 64.64 110.06 65.92 99.29&#10;  A 2.05 2.04 20.5 0 0 65.03 97.35&#10;  L 55.83 91.16&#10;  L 51.94 81.56&#10;  L 87.90 78.07&#10;  L 68.92 84.97&#10;  A 1.48 1.47 -19.1 0 0 68.01 86.82&#10;  L 70.75 95.08&#10;  A 0.55 0.55 0.0 0 0 71.44 95.43&#10;  L 109.86 82.70&#10;  A 0.77 0.77 0.0 0 0 110.38 81.92&#10;  Q 110.13 78.54 108.30 75.89&#10;  L 128.97 74.04&#10;  Z&#10;  M 102.48 94.46&#10;  A 0.70 0.70 0.0 0 0 101.74 93.80&#10;  L 79.21 95.09&#10;  A 0.70 0.70 0.0 0 0 78.55 95.83&#10;  L 78.73 98.94&#10;  A 0.70 0.70 0.0 0 0 79.47 99.60&#10;  L 102.00 98.31&#10;  A 0.70 0.70 0.0 0 0 102.66 97.57&#10;  L 102.48 94.46&#10;  Z"/>
<path fill="#dacca7" d="&#10;  M 108.30 75.89&#10;  Q 110.13 78.54 110.38 81.92&#10;  A 0.77 0.77 0.0 0 1 109.86 82.70&#10;  L 71.44 95.43&#10;  A 0.55 0.55 0.0 0 1 70.75 95.08&#10;  L 68.01 86.82&#10;  A 1.48 1.47 -19.1 0 1 68.92 84.97&#10;  L 87.90 78.07&#10;  L 108.30 75.89&#10;  Z"/>
<path fill="#432b22" d="&#10;  M 148.62 76.21&#10;  Q 149.27 76.23 149.70 76.52&#10;  Q 150.06 76.76 150.17 77.43&#10;  Q 150.55 79.66 151.57 81.63&#10;  L 151.95 84.07&#10;  A 0.68 0.68 0.0 0 0 152.80 84.63&#10;  L 157.11 83.46&#10;  Q 157.26 84.63 156.75 85.89&#10;  Q 156.55 86.39 156.88 86.82&#10;  Q 157.72 87.93 159.40 87.08&#10;  Q 164.13 84.68 167.78 83.34&#10;  A 0.45 0.45 0.0 0 1 168.39 83.83&#10;  L 168.35 84.12&#10;  Q 168.32 84.33 168.13 84.42&#10;  L 159.73 88.61&#10;  L 152.02 87.03&#10;  Q 151.49 86.92 151.35 87.46&#10;  L 150.99 88.96&#10;  Q 151.40 87.15 150.80 86.60&#10;  Q 150.41 86.24 150.00 86.59&#10;  Q 142.20 93.32 146.41 103.05&#10;  Q 145.01 106.08 141.65 109.33&#10;  Q 140.52 106.45 141.26 101.89&#10;  Q 140.13 93.30 141.94 84.23&#10;  Q 142.56 81.12 143.96 78.57&#10;  C 145.03 76.62 146.56 76.48 148.62 76.21&#10;  Z"/>
<path fill="#fffefd" d="&#10;  M 51.94 81.56&#10;  L 55.83 91.16&#10;  L 55.62 95.86&#10;  A 0.54 0.54 0.0 0 1 54.83 96.31&#10;  C 50.79 94.24 47.17 92.17 42.38 91.47&#10;  C 41.96 89.64 40.75 88.52 40.30 86.85&#10;  Q 39.80 84.96 39.58 82.71&#10;  L 51.94 81.56&#10;  Z"/>
<path fill="#992c12" d="&#10;  M 11.99 101.00&#10;  L 14.97 88.36&#10;  Q 15.09 87.88 15.41 87.49&#10;  L 19.89 82.02&#10;  Q 20.83 82.04 21.45 82.34&#10;  Q 21.93 82.57 22.01 83.10&#10;  L 22.95 89.20&#10;  Q 22.99 89.49 23.28 89.51&#10;  L 23.69 89.53&#10;  Q 24.08 89.56 24.11 89.17&#10;  L 24.53 82.64&#10;  A 0.85 0.84 -70.1 0 1 25.87 82.01&#10;  Q 30.27 85.23 30.64 91.09&#10;  Q 30.91 95.46 30.90 102.55&#10;  Q 30.90 103.91 29.54 103.99&#10;  L 25.44 104.22&#10;  A 1.66 1.66 0.0 0 1 23.68 102.65&#10;  L 23.04 91.60&#10;  A 0.49 0.49 0.0 0 0 22.30 91.20&#10;  C 19.44 92.85 18.33 94.64 16.05 98.21&#10;  Q 15.11 99.68 11.99 101.00&#10;  Z"/>
<path fill="#755241" d="&#10;  M 150.99 88.96&#10;  L 147.95 100.49&#10;  Q 146.84 101.56 146.41 103.05&#10;  Q 142.20 93.32 150.00 86.59&#10;  Q 150.41 86.24 150.80 86.60&#10;  Q 151.40 87.15 150.99 88.96&#10;  Z"/>
<path fill="#343539" d="&#10;  M 159.73 88.61&#10;  L 167.28 90.19&#10;  A 4.45 4.41 74.9 0 1 169.67 91.58&#10;  Q 172.33 94.57 175.27 97.75&#10;  Q 175.97 98.50 176.47 101.48&#10;  L 169.35 127.49&#10;  L 163.62 149.30&#10;  L 161.67 157.11&#10;  Q 159.67 160.12 162.09 162.05&#10;  Q 160.20 161.28 158.65 161.55&#10;  Q 158.15 161.63 158.46 162.04&#10;  L 174.99 184.00&#10;  L 110.20 184.00&#10;  Q 110.10 182.06 110.77 179.82&#10;  C 111.95 175.83 115.54 173.85 116.00 169.38&#10;  A 1.04 1.04 0.0 0 0 115.21 168.27&#10;  Q 110.92 167.20 107.37 166.67&#10;  Q 105.95 166.46 103.53 167.78&#10;  Q 99.76 169.86 98.33 171.01&#10;  Q 95.94 172.13 94.56 175.30&#10;  Q 92.70 179.55 91.43 184.00&#10;  L 69.11 184.00&#10;  Q 69.90 183.92 70.29 183.64&#10;  Q 70.58 183.43 70.33 183.19&#10;  Q 70.13 183.00 69.66 183.09&#10;  L 70.99 179.89&#10;  Q 71.16 179.48 70.72 179.55&#10;  Q 67.44 180.04 65.64 177.37&#10;  Q 60.42 169.59 55.44 161.21&#10;  L 50.72 153.08&#10;  Q 50.48 152.66 50.53 152.17&#10;  Q 50.91 148.91 49.87 148.19&#10;  L 59.05 146.09&#10;  L 67.88 158.37&#10;  Q 68.19 158.79 68.71 158.82&#10;  Q 74.17 159.06 77.38 159.73&#10;  Q 79.85 160.26 82.66 159.53&#10;  Q 86.24 158.60 94.82 157.07&#10;  C 97.20 156.64 100.27 155.56 101.98 154.50&#10;  Q 113.44 147.39 115.39 145.89&#10;  Q 118.53 143.47 123.17 138.08&#10;  Q 130.10 134.46 134.98 129.59&#10;  Q 139.37 127.69 142.62 125.14&#10;  C 150.87 118.66 158.55 111.49 166.31 104.42&#10;  C 167.42 103.41 169.06 102.44 170.07 101.69&#10;  Q 171.04 100.96 170.13 100.17&#10;  Q 168.99 99.18 163.42 95.07&#10;  Q 160.85 93.18 157.85 92.65&#10;  Q 154.62 92.08 151.69 91.57&#10;  Q 151.18 91.48 151.14 90.97&#10;  L 150.99 88.96&#10;  L 151.35 87.46&#10;  Q 151.49 86.92 152.02 87.03&#10;  L 159.73 88.61&#10;  Z"/>
<path fill="#505358" d="&#10;  M 150.99 88.96&#10;  L 151.14 90.97&#10;  Q 151.18 91.48 151.69 91.57&#10;  Q 154.62 92.08 157.85 92.65&#10;  Q 160.85 93.18 163.42 95.07&#10;  Q 168.99 99.18 170.13 100.17&#10;  Q 171.04 100.96 170.07 101.69&#10;  C 169.06 102.44 167.42 103.41 166.31 104.42&#10;  C 158.55 111.49 150.87 118.66 142.62 125.14&#10;  Q 139.37 127.69 134.98 129.59&#10;  Q 137.23 124.26 139.04 119.18&#10;  C 139.45 118.03 140.20 117.22 140.96 116.32&#10;  Q 145.10 114.20 148.24 110.79&#10;  A 1.37 1.34 68.5 0 0 148.59 109.96&#10;  L 149.16 101.09&#10;  A 0.89 0.89 0.0 0 0 148.66 100.23&#10;  Q 147.82 99.82 147.95 100.49&#10;  L 150.99 88.96&#10;  Z"/>
<path fill="#feffd3" d="&#10;  M 55.83 91.16&#10;  L 65.03 97.35&#10;  A 2.05 2.04 20.5 0 1 65.92 99.29&#10;  Q 64.64 110.06 63.38 120.37&#10;  Q 62.83 124.85 62.80 129.60&#10;  Q 62.80 129.78 63.36 133.58&#10;  Q 63.79 136.44 61.85 138.94&#10;  Q 60.66 139.29 59.06 138.98&#10;  Q 56.05 134.55 55.78 132.92&#10;  Q 55.09 128.76 54.01 127.01&#10;  Q 49.44 119.62 45.90 112.52&#10;  Q 45.14 111.01 44.82 112.67&#10;  Q 44.41 114.78 45.07 117.33&#10;  Q 43.67 117.54 42.80 117.19&#10;  Q 42.33 117.00 42.38 116.49&#10;  Q 43.06 109.33 43.86 102.22&#10;  Q 44.15 99.61 43.57 96.83&#10;  Q 43.00 94.14 42.38 91.47&#10;  C 47.17 92.17 50.79 94.24 54.83 96.31&#10;  A 0.54 0.54 0.0 0 0 55.62 95.86&#10;  L 55.83 91.16&#10;  Z&#10;  M 56.88 96.99&#10;  L 48.22 97.49&#10;  Q 46.92 97.56 47.33 98.79&#10;  L 47.82 100.28&#10;  Q 48.27 101.65 49.71 101.57&#10;  L 58.15 101.09&#10;  Q 58.99 101.04 58.72 100.24&#10;  L 57.83 97.55&#10;  Q 57.63 96.95 56.88 96.99&#10;  Z"/>
<path fill="#7d1d13" d="&#10;  M 174.59 131.06&#10;  L 174.54 118.11&#10;  Q 174.54 117.92 174.36 117.90&#10;  L 174.09 117.86&#10;  Q 173.92 117.83 173.89 118.01&#10;  L 172.56 127.57&#10;  Q 172.48 128.11 171.95 128.23&#10;  Q 170.50 128.56 169.35 127.49&#10;  L 176.47 101.48&#10;  L 178.18 102.65&#10;  Q 178.57 102.92 178.90 102.58&#10;  C 180.12 101.38 179.95 100.29 179.04 98.82&#10;  Q 177.09 95.68 179.55 92.19&#10;  Q 179.86 91.75 180.29 92.08&#10;  Q 181.44 92.96 181.40 93.76&#10;  Q 181.07 100.30 181.03 103.29&#10;  Q 181.02 103.79 180.77 104.22&#10;  L 180.57 104.58&#10;  Q 180.41 104.84 180.69 104.96&#10;  Q 181.09 105.12 181.17 105.47&#10;  Q 181.27 105.94 180.81 106.09&#10;  Q 178.60 106.83 178.37 109.78&#10;  Q 178.26 111.27 179.15 111.61&#10;  Q 179.61 111.79 179.85 112.22&#10;  Q 181.62 115.50 181.40 119.54&#10;  C 181.05 126.10 181.78 133.40 180.73 140.34&#10;  A 0.69 0.69 0.0 0 1 179.49 140.65&#10;  Q 177.96 138.57 177.18 135.99&#10;  C 176.83 134.83 176.49 134.64 175.56 134.22&#10;  A 1.26 1.25 3.4 0 1 174.88 133.46&#10;  Q 174.49 132.29 174.59 131.06&#10;  Z"/>
<path fill="#343539" d="&#10;  M 102.48 94.46&#10;  L 102.66 97.57&#10;  A 0.70 0.70 0.0 0 1 102.00 98.31&#10;  L 79.47 99.60&#10;  A 0.70 0.70 0.0 0 1 78.73 98.94&#10;  L 78.55 95.83&#10;  A 0.70 0.70 0.0 0 1 79.21 95.09&#10;  L 101.74 93.80&#10;  A 0.70 0.70 0.0 0 1 102.48 94.46&#10;  Z"/>
<path fill="#343539" d="&#10;  M 56.88 96.99&#10;  Q 57.63 96.95 57.83 97.55&#10;  L 58.72 100.24&#10;  Q 58.99 101.04 58.15 101.09&#10;  L 49.71 101.57&#10;  Q 48.27 101.65 47.82 100.28&#10;  L 47.33 98.79&#10;  Q 46.92 97.56 48.22 97.49&#10;  L 56.88 96.99&#10;  Z"/>
<path fill="#dacca7" d="&#10;  M 140.96 116.32&#10;  Q 140.49 116.47 140.30 116.25&#10;  Q 140.18 116.10 140.27 115.73&#10;  Q 141.24 112.08 141.65 109.33&#10;  Q 145.01 106.08 146.41 103.05&#10;  Q 146.84 101.56 147.95 100.49&#10;  Q 147.82 99.82 148.66 100.23&#10;  A 0.89 0.89 0.0 0 1 149.16 101.09&#10;  L 148.59 109.96&#10;  A 1.37 1.34 68.5 0 1 148.24 110.79&#10;  Q 145.10 114.20 140.96 116.32&#10;  Z"/>
<path fill="#432b22" d="&#10;  M 11.71 101.24&#10;  Q 13.47 105.26 15.88 109.01&#10;  Q 16.28 109.63 16.07 110.03&#10;  A 0.48 0.41 -57.4 0 1 15.43 110.23&#10;  L 13.59 108.86&#10;  Q 11.62 107.39 12.05 109.77&#10;  L 12.73 113.49&#10;  Q 12.82 114.00 13.32 114.24&#10;  L 17.51 116.22&#10;  L 15.84 122.69&#10;  A 1.48 1.47 11.4 0 1 14.20 123.78&#10;  L 9.56 123.14&#10;  Q 9.19 123.09 8.96 123.36&#10;  L 5.74 127.13&#10;  Q 5.21 127.75 5.00 126.96&#10;  C 3.67 121.93 5.84 117.92 8.49 112.47&#10;  Q 10.49 108.36 11.71 101.24&#10;  Z"/>
<path fill="#888069" d="&#10;  M 141.26 101.89&#10;  Q 140.52 106.45 141.65 109.33&#10;  Q 141.24 112.08 140.27 115.73&#10;  Q 140.18 116.10 140.30 116.25&#10;  Q 140.49 116.47 140.96 116.32&#10;  C 140.20 117.22 139.45 118.03 139.04 119.18&#10;  Q 137.23 124.26 134.98 129.59&#10;  Q 130.10 134.46 123.17 138.08&#10;  C 124.77 134.99 127.02 131.98 128.11 128.97&#10;  Q 129.75 124.46 132.43 118.42&#10;  Q 133.24 116.61 132.63 115.19&#10;  A 0.62 0.62 0.0 0 1 133.16 114.33&#10;  L 137.54 114.08&#10;  Q 138.14 114.04 138.44 113.53&#10;  C 140.59 109.81 140.73 105.91 141.26 101.89&#10;  Z"/>
<path fill="#54120e" d="&#10;  M 46.85 122.25&#10;  L 48.71 125.52&#10;  C 50.37 128.45 52.43 131.41 53.16 134.70&#10;  Q 53.63 136.81 53.93 138.96&#10;  Q 53.95 139.14 53.94 139.29&#10;  Q 53.91 139.72 53.48 139.76&#10;  L 43.87 140.78&#10;  L 38.50 142.91&#10;  Q 38.01 143.10 37.84 143.61&#10;  Q 37.46 144.77 37.70 146.52&#10;  Q 38.03 148.95 40.22 149.17&#10;  Q 42.39 149.38 44.64 148.96&#10;  L 49.87 148.19&#10;  Q 50.91 148.91 50.53 152.17&#10;  Q 50.48 152.66 50.72 153.08&#10;  L 55.44 161.21&#10;  L 49.97 175.22&#10;  A 1.04 1.04 0.0 0 1 48.59 175.80&#10;  Q 43.70 173.69 36.85 173.58&#10;  Q 35.01 176.87 35.37 181.78&#10;  A 0.79 0.78 -24.5 0 1 35.13 182.41&#10;  Q 34.76 182.77 34.89 183.25&#10;  Q 34.99 183.59 35.72 183.80&#10;  Q 36.21 183.94 36.76 184.00&#10;  L 26.61 184.00&#10;  L 27.05 183.80&#10;  Q 27.62 183.54 27.11 183.18&#10;  Q 25.32 181.88 26.49 180.06&#10;  Q 26.76 179.64 27.23 179.47&#10;  Q 28.83 178.91 29.47 178.17&#10;  A 0.80 0.80 0.0 0 0 29.60 177.33&#10;  C 27.98 173.64 25.62 170.51 25.27 167.06&#10;  C 24.75 161.94 20.78 158.51 18.33 154.69&#10;  Q 16.81 152.31 14.97 150.55&#10;  Q 13.36 149.01 11.09 146.17&#10;  C 10.04 144.87 10.27 143.61 10.77 142.17&#10;  Q 10.90 141.82 10.82 141.40&#10;  L 10.18 138.15&#10;  A 1.39 1.39 0.0 0 1 12.45 136.83&#10;  L 15.70 139.60&#10;  Q 17.29 140.96 18.55 139.29&#10;  L 18.87 138.87&#10;  Q 20.03 137.35 18.39 136.19&#10;  Q 16.28 134.71 13.76 134.08&#10;  A 0.98 0.98 0.0 0 1 13.06 133.43&#10;  Q 12.85 132.78 13.25 132.17&#10;  A 1.26 0.49 -1.4 0 1 14.14 131.80&#10;  L 21.08 130.97&#10;  Q 21.56 130.91 21.82 131.18&#10;  C 26.15 135.62 29.48 139.47 35.60 140.08&#10;  Q 36.02 140.12 36.08 139.71&#10;  L 36.89 133.91&#10;  Q 36.95 133.50 36.67 133.20&#10;  L 32.60 128.76&#10;  Q 31.95 128.05 32.11 127.10&#10;  Q 32.59 124.22 32.11 122.34&#10;  Q 31.58 120.26 30.50 122.12&#10;  L 28.14 126.22&#10;  A 0.91 0.91 0.0 0 1 26.94 126.57&#10;  L 26.67 126.43&#10;  A 0.65 0.57 27.3 0 1 26.35 125.61&#10;  Q 29.27 120.17 30.13 115.07&#10;  A 0.81 0.80 25.5 0 0 29.86 114.32&#10;  L 29.47 113.98&#10;  Q 29.02 113.61 28.71 114.10&#10;  L 28.27 114.77&#10;  Q 26.95 113.02 27.10 110.82&#10;  Q 27.14 110.37 26.82 110.04&#10;  Q 26.57 109.78 26.64 109.50&#10;  Q 26.77 109.02 27.17 109.32&#10;  C 29.64 111.17 31.41 114.07 33.79 116.24&#10;  C 35.61 117.89 37.42 120.73 40.42 121.93&#10;  Q 43.45 123.14 46.85 122.25&#10;  Z"/>
<path fill="#fffefd" d="&#10;  M 115.29 119.81&#10;  Q 119.53 116.14 121.88 111.66&#10;  Q 122.50 111.33 122.56 111.28&#10;  Q 123.67 110.26 123.47 111.76&#10;  Q 123.15 114.22 121.71 115.98&#10;  Q 119.19 119.05 115.29 119.81&#10;  Z"/>
<path fill="#dacca7" d="&#10;  M 59.06 138.98&#10;  Q 56.81 139.52 54.35 139.30&#10;  L 55.55 139.03&#10;  Q 56.11 138.91 55.90 138.38&#10;  Q 55.00 136.03 55.09 133.48&#10;  Q 55.10 133.20 54.24 130.93&#10;  Q 53.76 129.64 52.85 128.88&#10;  Q 51.63 127.85 50.02 125.45&#10;  Q 49.65 124.89 49.22 124.74&#10;  Q 48.82 124.60 48.77 125.02&#10;  L 48.71 125.52&#10;  L 46.85 122.25&#10;  L 45.70 120.01&#10;  Q 45.48 119.57 45.59 119.08&#10;  Q 45.86 117.90 45.07 117.33&#10;  Q 44.41 114.78 44.82 112.67&#10;  Q 45.14 111.01 45.90 112.52&#10;  Q 49.44 119.62 54.01 127.01&#10;  Q 55.09 128.76 55.78 132.92&#10;  Q 56.05 134.55 59.06 138.98&#10;  Z"/>
<path fill="#9f856d" d="&#10;  M 126.95 114.76&#10;  Q 125.83 115.29 125.14 114.93&#10;  A 0.46 0.46 0.0 0 1 125.22 114.08&#10;  Q 125.96 113.88 126.94 114.27&#10;  A 0.27 0.27 0.0 0 1 126.95 114.76&#10;  Z"/>
<path fill="#54120e" d="&#10;  M 174.59 131.06&#10;  L 173.95 129.52&#10;  A 1.14 1.14 0.0 0 0 171.88 129.43&#10;  Q 171.25 130.63 171.33 132.24&#10;  Q 171.35 132.70 171.12 133.10&#10;  L 169.81 135.37&#10;  Q 169.54 135.85 169.64 136.38&#10;  Q 170.71 141.82 171.26 142.53&#10;  Q 173.78 145.75 174.09 149.66&#10;  C 174.28 152.20 175.79 153.32 176.22 155.68&#10;  Q 177.13 160.70 177.74 164.25&#10;  A 1.95 1.94 -76.5 0 1 174.66 166.14&#10;  Q 174.15 165.76 173.26 164.86&#10;  Q 166.63 158.16 163.62 149.30&#10;  L 169.35 127.49&#10;  Q 170.50 128.56 171.95 128.23&#10;  Q 172.48 128.11 172.56 127.57&#10;  L 173.89 118.01&#10;  Q 173.92 117.83 174.09 117.86&#10;  L 174.36 117.90&#10;  Q 174.54 117.92 174.54 118.11&#10;  L 174.59 131.06&#10;  Z"/>
<path fill="#fffefd" d="&#10;  M 54.35 139.30&#10;  Q 54.40 139.12 53.93 138.96&#10;  Q 53.63 136.81 53.16 134.70&#10;  C 52.43 131.41 50.37 128.45 48.71 125.52&#10;  L 48.77 125.02&#10;  Q 48.82 124.60 49.22 124.74&#10;  Q 49.65 124.89 50.02 125.45&#10;  Q 51.63 127.85 52.85 128.88&#10;  Q 53.76 129.64 54.24 130.93&#10;  Q 55.10 133.20 55.09 133.48&#10;  Q 55.00 136.03 55.90 138.38&#10;  Q 56.11 138.91 55.55 139.03&#10;  L 54.35 139.30&#10;  Z"/>
<path fill="#755241" d="&#10;  M 67.71 143.96&#10;  Q 63.73 144.47 62.72 144.50&#10;  Q 56.07 144.76 62.27 142.33&#10;  Q 65.45 141.09 70.54 138.73&#10;  Q 71.11 138.56 71.37 138.19&#10;  A 0.66 0.66 0.0 0 0 70.90 137.16&#10;  Q 69.01 136.94 68.93 136.94&#10;  Q 65.15 136.76 68.72 135.52&#10;  Q 71.79 134.46 80.56 131.44&#10;  Q 80.78 131.36 80.93 131.43&#10;  Q 81.06 131.48 81.13 131.59&#10;  Q 81.24 131.74 81.08 131.85&#10;  Q 77.35 134.38 74.61 136.35&#10;  Q 74.04 136.77 73.85 137.10&#10;  Q 73.50 137.73 74.20 137.91&#10;  L 86.93 141.18&#10;  Q 87.53 141.34 87.15 141.84&#10;  Q 86.91 142.15 86.51 142.13&#10;  Q 79.84 141.90 74.96 142.36&#10;  C 74.00 142.45 73.70 142.30 72.93 142.08&#10;  Q 72.42 141.94 72.01 142.26&#10;  Q 70.16 143.71 67.71 143.96&#10;  Z"/>
<path fill="#9f856d" d="&#10;  M 70.54 138.73&#10;  Q 65.45 141.09 62.27 142.33&#10;  Q 56.07 144.76 62.72 144.50&#10;  Q 63.73 144.47 67.71 143.96&#10;  Q 65.35 144.96 63.22 144.85&#10;  L 59.05 146.09&#10;  L 49.87 148.19&#10;  L 44.64 148.96&#10;  Q 48.25 146.13 43.87 140.78&#10;  L 53.48 139.76&#10;  Q 53.91 139.72 53.94 139.29&#10;  Q 53.95 139.14 53.93 138.96&#10;  Q 54.40 139.12 54.35 139.30&#10;  Q 56.81 139.52 59.06 138.98&#10;  Q 60.66 139.29 61.85 138.94&#10;  L 70.54 138.73&#10;  Z"/>
<path fill="#f3824a" d="&#10;  M 43.87 140.78&#10;  Q 48.25 146.13 44.64 148.96&#10;  Q 42.39 149.38 40.22 149.17&#10;  Q 38.03 148.95 37.70 146.52&#10;  Q 37.46 144.77 37.84 143.61&#10;  Q 38.01 143.10 38.50 142.91&#10;  L 43.87 140.78&#10;  Z"/>
<path fill="#4d4d47" d="&#10;  M 161.67 157.11&#10;  Q 163.91 158.78 165.86 160.37&#10;  Q 170.68 164.28 171.66 170.75&#10;  Q 171.79 171.63 171.16 171.01&#10;  L 162.09 162.05&#10;  Q 159.67 160.12 161.67 157.11&#10;  Z"/>
<path fill="#4d4d47" d="&#10;  M 55.44 161.21&#10;  Q 60.42 169.59 65.64 177.37&#10;  Q 67.44 180.04 70.72 179.55&#10;  Q 71.16 179.48 70.99 179.89&#10;  L 69.66 183.09&#10;  Q 64.50 181.68 59.69 182.59&#10;  Q 57.47 183.00 59.56 183.84&#10;  Q 59.69 183.89 60.75 183.85&#10;  Q 64.28 183.70 67.77 184.00&#10;  L 40.52 184.00&#10;  Q 39.72 182.27 38.26 181.06&#10;  Q 37.88 180.74 37.91 180.24&#10;  Q 38.08 176.86 36.85 173.58&#10;  Q 43.70 173.69 48.59 175.80&#10;  A 1.04 1.04 0.0 0 0 49.97 175.22&#10;  L 55.44 161.21&#10;  Z"/>
<path fill="#4d4d47" d="&#10;  M 110.20 184.00&#10;  L 93.65 184.00&#10;  Q 96.85 177.90 98.33 171.01&#10;  Q 99.76 169.86 103.53 167.78&#10;  Q 105.95 166.46 107.37 166.67&#10;  Q 110.92 167.20 115.21 168.27&#10;  A 1.04 1.04 0.0 0 1 116.00 169.38&#10;  C 115.54 173.85 111.95 175.83 110.77 179.82&#10;  Q 110.10 182.06 110.20 184.00&#10;  Z"/>
<path fill="#888069" d="&#10;  M 98.33 171.01&#10;  Q 96.85 177.90 93.65 184.00&#10;  L 91.43 184.00&#10;  Q 92.70 179.55 94.56 175.30&#10;  Q 95.94 172.13 98.33 171.01&#10;  Z"/>
<path fill="#9f856d" d="&#10;  M 36.85 173.58&#10;  Q 38.08 176.86 37.91 180.24&#10;  Q 37.88 180.74 38.26 181.06&#10;  Q 39.72 182.27 40.52 184.00&#10;  L 36.76 184.00&#10;  Q 36.21 183.94 35.72 183.80&#10;  Q 34.99 183.59 34.89 183.25&#10;  Q 34.76 182.77 35.13 182.41&#10;  A 0.79 0.78 -24.5 0 0 35.37 181.78&#10;  Q 35.01 176.87 36.85 173.58&#10;  Z"/>
<path fill="#4d4d47" d="&#10;  M 1.80 184.00&#10;  L 0.00 184.00&#10;  L 0.00 182.32&#10;  Q 0.76 183.33 1.80 184.00&#10;  Z"/>
<path fill="#888069" d="&#10;  M 69.66 183.09&#10;  Q 70.13 183.00 70.33 183.19&#10;  Q 70.58 183.43 70.29 183.64&#10;  Q 69.90 183.92 69.11 184.00&#10;  L 67.77 184.00&#10;  Q 64.28 183.70 60.75 183.85&#10;  Q 59.69 183.89 59.56 183.84&#10;  Q 57.47 183.00 59.69 182.59&#10;  Q 64.50 181.68 69.66 183.09&#10;  Z"/>
<path fill="#4d4d47" d="&#10;  M 184.00 182.12&#10;  L 184.00 184.00&#10;  L 182.32 184.00&#10;  L 184.00 182.12&#10;  Z"/>
</svg>